<svg width="1920" height="180" viewBox="0 0 1920 180" fill="none" xmlns="http://www.w3.org/2000/svg">
<path d="M71 55.4793C7 55.4793 -17 75.7273 -21 85.8512V147H1964V103.264V36.0413C1953.83 48.1901 1922.6 72.4876 1879 72.4876C1824.5 72.4876 1768 0 1718.5 0C1669 0 1619.5 85.8512 1567.5 85.8512C1515.5 85.8512 1489.5 85.8512 1383.5 45.7603C1277.5 5.66943 1175.5 36.0413 1133 36.0413C1099 36.0413 1060.83 80.8568 1046 103.264C1006.67 87.3361 917.6 55.4793 876 55.4793C824 55.4793 736.5 34.4215 677.5 36.0413C618.5 37.6612 597.5 85.8512 540.5 85.8512C483.5 85.8512 496 55.4793 458 55.4793C420 55.4793 347 85.8512 309.5 85.8512C272 85.8512 151 55.4793 71 55.4793Z" fill="#6B822B"/>
<path d="M71 88.4793C7 88.4793 -17 108.727 -21 118.851V180H1964V136.264V69.0413C1953.83 81.1901 1922.6 105.488 1879 105.488C1824.5 105.488 1768 33 1718.5 33C1669 33 1619.5 118.851 1567.5 118.851C1515.5 118.851 1489.5 118.851 1383.5 78.7603C1277.5 38.6694 1175.5 69.0413 1133 69.0413C1099 69.0413 1060.83 113.857 1046 136.264C1006.67 120.336 917.6 88.4793 876 88.4793C824 88.4793 736.5 67.4215 677.5 69.0413C618.5 70.6612 597.5 118.851 540.5 118.851C483.5 118.851 496 88.4793 458 88.4793C420 88.4793 347 118.851 309.5 118.851C272 118.851 151 88.4793 71 88.4793Z" fill="#566920"/>
</svg>
