<svg width="504" height="440" viewBox="0 0 504 440" fill="none" xmlns="http://www.w3.org/2000/svg">
<path d="M106.135 264C105.251 264 104.537 263.796 103.993 263.388C103.483 262.98 103.228 262.487 103.228 261.909V228.861C103.228 228.147 103.534 227.62 104.146 227.28C104.758 226.906 105.421 226.719 106.135 226.719H116.029C117.763 226.719 119.412 226.974 120.976 227.484C122.54 227.96 123.815 228.844 124.801 230.136C125.787 231.428 126.28 233.281 126.28 235.695C126.28 237.769 125.889 239.503 125.107 240.897C124.325 242.257 123.271 243.226 121.945 243.804C122.999 244.178 123.917 244.705 124.699 245.385C125.481 246.031 126.093 246.898 126.535 247.986C126.977 249.04 127.198 250.417 127.198 252.117V253.188C127.198 255.84 126.739 257.965 125.821 259.563C124.937 261.127 123.713 262.266 122.149 262.98C120.619 263.66 118.902 264 116.998 264H106.135ZM109.858 258.186H115.57C117.134 258.186 118.358 257.744 119.242 256.86C120.126 255.976 120.568 254.565 120.568 252.627V251.811C120.568 249.805 120.126 248.411 119.242 247.629C118.358 246.813 117.134 246.405 115.57 246.405H109.858V258.186ZM109.858 241.203H115.57C116.964 241.203 117.984 240.795 118.63 239.979C119.31 239.163 119.65 238.109 119.65 236.817C119.65 235.899 119.48 235.134 119.14 234.522C118.8 233.876 118.324 233.383 117.712 233.043C117.1 232.703 116.369 232.533 115.519 232.533H109.858V241.203ZM134.62 234.369C133.634 234.369 132.784 234.046 132.07 233.4C131.356 232.72 130.999 231.972 130.999 231.156C130.999 230.272 131.356 229.524 132.07 228.912C132.784 228.266 133.634 227.943 134.62 227.943C135.64 227.943 136.49 228.266 137.17 228.912C137.85 229.524 138.19 230.272 138.19 231.156C138.19 231.972 137.85 232.72 137.17 233.4C136.49 234.046 135.64 234.369 134.62 234.369ZM134.62 264C133.668 264 132.886 263.779 132.274 263.337C131.662 262.895 131.356 262.402 131.356 261.858V241.815C131.356 241.203 131.662 240.71 132.274 240.336C132.886 239.962 133.668 239.775 134.62 239.775C135.538 239.775 136.32 239.962 136.966 240.336C137.612 240.71 137.935 241.203 137.935 241.815V261.858C137.935 262.402 137.612 262.895 136.966 263.337C136.32 263.779 135.538 264 134.62 264ZM146.225 264C145.273 264 144.491 263.779 143.879 263.337C143.267 262.895 142.961 262.402 142.961 261.858V241.815C142.961 241.203 143.267 240.71 143.879 240.336C144.491 239.962 145.273 239.775 146.225 239.775C147.041 239.775 147.721 239.962 148.265 240.336C148.843 240.71 149.132 241.203 149.132 241.815V243.345C149.642 242.359 150.475 241.475 151.631 240.693C152.821 239.877 154.266 239.469 155.966 239.469C157.564 239.469 159.026 239.945 160.352 240.897C161.678 241.815 162.732 243.056 163.514 244.62C164.33 246.184 164.738 247.918 164.738 249.822V261.858C164.738 262.572 164.398 263.116 163.718 263.49C163.038 263.83 162.273 264 161.423 264C160.675 264 159.944 263.83 159.23 263.49C158.516 263.116 158.159 262.572 158.159 261.858V249.822C158.159 249.04 157.955 248.309 157.547 247.629C157.173 246.949 156.646 246.388 155.966 245.946C155.286 245.47 154.538 245.232 153.722 245.232C153.042 245.232 152.379 245.419 151.733 245.793C151.087 246.167 150.56 246.694 150.152 247.374C149.744 248.054 149.54 248.87 149.54 249.822V261.858C149.54 262.402 149.217 262.895 148.571 263.337C147.925 263.779 147.143 264 146.225 264ZM174.858 264.459C173.056 264.459 171.492 263.915 170.166 262.827C168.874 261.705 168.228 259.988 168.228 257.676C168.228 255.738 168.721 254.225 169.707 253.137C170.727 252.049 172.121 251.284 173.889 250.842C175.691 250.4 177.765 250.179 180.111 250.179H182.202V249.516C182.202 248.768 182.049 248.037 181.743 247.323C181.471 246.609 181.012 246.014 180.366 245.538C179.754 245.062 178.87 244.824 177.714 244.824C176.422 244.824 175.419 244.96 174.705 245.232C174.025 245.47 173.498 245.725 173.124 245.997C172.75 246.269 172.342 246.405 171.9 246.405C171.186 246.405 170.625 246.048 170.217 245.334C169.843 244.62 169.656 243.889 169.656 243.141C169.656 242.427 170.081 241.798 170.931 241.254C171.815 240.676 172.886 240.234 174.144 239.928C175.402 239.622 176.626 239.469 177.816 239.469C180.468 239.469 182.593 239.945 184.191 240.897C185.789 241.849 186.945 243.073 187.659 244.569C188.407 246.065 188.781 247.68 188.781 249.414V261.858C188.781 262.47 188.475 262.98 187.863 263.388C187.251 263.796 186.486 264 185.568 264C184.718 264 184.004 263.796 183.426 263.388C182.882 262.98 182.61 262.47 182.61 261.858V260.43C181.692 261.484 180.604 262.419 179.346 263.235C178.122 264.051 176.626 264.459 174.858 264.459ZM177.51 259.563C178.224 259.563 178.938 259.325 179.652 258.849C180.366 258.373 180.961 257.761 181.437 257.013C181.947 256.265 182.202 255.483 182.202 254.667V253.596H181.437C180.315 253.596 179.244 253.664 178.224 253.8C177.204 253.936 176.371 254.242 175.725 254.718C175.113 255.16 174.807 255.857 174.807 256.809C174.807 257.761 175.062 258.458 175.572 258.9C176.116 259.342 176.762 259.563 177.51 259.563ZM196.926 264C195.974 264 195.192 263.779 194.58 263.337C193.968 262.895 193.662 262.402 193.662 261.858V241.815C193.662 241.203 193.968 240.71 194.58 240.336C195.192 239.962 195.974 239.775 196.926 239.775C197.742 239.775 198.422 239.962 198.966 240.336C199.544 240.71 199.833 241.203 199.833 241.815V243.345C200.343 242.359 201.176 241.475 202.332 240.693C203.522 239.877 204.967 239.469 206.667 239.469C208.265 239.469 209.727 239.945 211.053 240.897C212.379 241.815 213.433 243.056 214.215 244.62C215.031 246.184 215.439 247.918 215.439 249.822V261.858C215.439 262.572 215.099 263.116 214.419 263.49C213.739 263.83 212.974 264 212.124 264C211.376 264 210.645 263.83 209.931 263.49C209.217 263.116 208.86 262.572 208.86 261.858V249.822C208.86 249.04 208.656 248.309 208.248 247.629C207.874 246.949 207.347 246.388 206.667 245.946C205.987 245.47 205.239 245.232 204.423 245.232C203.743 245.232 203.08 245.419 202.434 245.793C201.788 246.167 201.261 246.694 200.853 247.374C200.445 248.054 200.241 248.87 200.241 249.822V261.858C200.241 262.402 199.918 262.895 199.272 263.337C198.626 263.779 197.844 264 196.926 264ZM230.608 264.459C228.024 264.459 225.916 264 224.284 263.082C222.652 262.164 221.445 260.923 220.663 259.359C219.881 257.761 219.49 255.976 219.49 254.004V249.924C219.49 247.952 219.864 246.184 220.612 244.62C221.394 243.022 222.601 241.764 224.233 240.846C225.899 239.928 227.99 239.469 230.506 239.469C232.104 239.469 233.515 239.656 234.739 240.03C235.963 240.404 236.932 240.897 237.646 241.509C238.36 242.121 238.717 242.767 238.717 243.447C238.717 243.855 238.598 244.314 238.36 244.824C238.156 245.3 237.85 245.725 237.442 246.099C237.068 246.473 236.626 246.66 236.116 246.66C235.742 246.66 235.351 246.541 234.943 246.303C234.569 246.065 234.076 245.827 233.464 245.589C232.852 245.351 232.036 245.232 231.016 245.232C229.282 245.232 228.024 245.657 227.242 246.507C226.46 247.323 226.069 248.462 226.069 249.924V254.004C226.069 255.466 226.46 256.622 227.242 257.472C228.024 258.288 229.299 258.696 231.067 258.696C232.121 258.696 232.937 258.56 233.515 258.288C234.093 258.016 234.569 257.761 234.943 257.523C235.351 257.285 235.759 257.166 236.167 257.166C236.779 257.166 237.289 257.336 237.697 257.676C238.139 258.016 238.462 258.441 238.666 258.951C238.904 259.427 239.023 259.869 239.023 260.277C239.023 260.957 238.649 261.62 237.901 262.266C237.187 262.912 236.184 263.439 234.892 263.847C233.634 264.255 232.206 264.459 230.608 264.459ZM253.596 264.459C251.182 264.459 249.04 264.034 247.17 263.184C245.334 262.3 243.889 261.076 242.835 259.512C241.781 257.914 241.254 256.078 241.254 254.004V249.669C241.254 247.833 241.747 246.15 242.733 244.62C243.753 243.056 245.096 241.815 246.762 240.897C248.462 239.945 250.349 239.469 252.423 239.469C254.327 239.469 256.061 239.877 257.625 240.693C259.223 241.509 260.515 242.631 261.501 244.059C262.487 245.487 262.98 247.153 262.98 249.057C262.98 250.519 262.742 251.573 262.266 252.219C261.79 252.831 261.178 253.222 260.43 253.392C259.716 253.528 258.968 253.596 258.186 253.596H247.833V254.361C247.833 255.823 248.377 257.013 249.465 257.931C250.587 258.815 252.032 259.257 253.8 259.257C254.922 259.257 255.857 259.087 256.605 258.747C257.353 258.407 257.999 258.084 258.543 257.778C259.087 257.472 259.597 257.319 260.073 257.319C260.583 257.319 261.025 257.489 261.399 257.829C261.773 258.169 262.062 258.577 262.266 259.053C262.47 259.495 262.572 259.886 262.572 260.226C262.572 260.804 262.198 261.433 261.45 262.113C260.736 262.759 259.699 263.32 258.339 263.796C257.013 264.238 255.432 264.459 253.596 264.459ZM247.833 249.72H255.279C255.857 249.72 256.248 249.635 256.452 249.465C256.69 249.261 256.809 248.887 256.809 248.343C256.809 247.561 256.588 246.864 256.146 246.252C255.738 245.64 255.194 245.164 254.514 244.824C253.868 244.484 253.137 244.314 252.321 244.314C251.539 244.314 250.808 244.484 250.128 244.824C249.448 245.13 248.887 245.589 248.445 246.201C248.037 246.779 247.833 247.476 247.833 248.292V249.72ZM287.589 264.459C285.379 264.459 283.373 264.136 281.571 263.49C279.803 262.844 278.392 262.045 277.338 261.093C276.318 260.107 275.808 259.121 275.808 258.135C275.808 257.659 275.927 257.149 276.165 256.605C276.437 256.027 276.794 255.551 277.236 255.177C277.678 254.769 278.171 254.565 278.715 254.565C279.259 254.565 279.769 254.769 280.245 255.177C280.721 255.551 281.265 256.01 281.877 256.554C282.489 257.064 283.237 257.523 284.121 257.931C285.005 258.305 286.093 258.492 287.385 258.492C288.405 258.492 289.34 258.339 290.19 258.033C291.074 257.693 291.771 257.2 292.281 256.554C292.825 255.908 293.097 255.075 293.097 254.055C293.097 252.967 292.808 252.049 292.23 251.301C291.652 250.553 290.87 249.907 289.884 249.363C288.898 248.819 287.827 248.292 286.671 247.782C285.515 247.272 284.342 246.728 283.152 246.15C281.996 245.572 280.925 244.875 279.939 244.059C278.987 243.243 278.205 242.24 277.593 241.05C277.015 239.86 276.726 238.398 276.726 236.664C276.726 234.76 277.083 233.162 277.797 231.87C278.545 230.578 279.514 229.541 280.704 228.759C281.928 227.943 283.271 227.365 284.733 227.025C286.195 226.651 287.657 226.464 289.119 226.464C289.901 226.464 290.819 226.532 291.873 226.668C292.961 226.77 294.032 226.974 295.086 227.28C296.174 227.586 297.058 228.011 297.738 228.555C298.452 229.065 298.809 229.745 298.809 230.595C298.809 230.969 298.707 231.428 298.503 231.972C298.333 232.516 298.044 233.009 297.636 233.451C297.262 233.893 296.769 234.114 296.157 234.114C295.613 234.114 295.069 233.961 294.525 233.655C294.015 233.315 293.335 232.992 292.485 232.686C291.669 232.346 290.547 232.176 289.119 232.176C287.929 232.176 286.892 232.329 286.008 232.635C285.124 232.941 284.461 233.383 284.019 233.961C283.577 234.505 283.356 235.202 283.356 236.052C283.356 236.936 283.645 237.684 284.223 238.296C284.835 238.908 285.617 239.452 286.569 239.928C287.555 240.404 288.626 240.88 289.782 241.356C290.938 241.832 292.094 242.393 293.25 243.039C294.44 243.651 295.528 244.399 296.514 245.283C297.5 246.167 298.282 247.272 298.86 248.598C299.438 249.89 299.727 251.488 299.727 253.392C299.727 255.806 299.2 257.846 298.146 259.512C297.092 261.144 295.647 262.385 293.811 263.235C292.009 264.051 289.935 264.459 287.589 264.459ZM307.044 264C306.092 264 305.31 263.779 304.698 263.337C304.086 262.895 303.78 262.402 303.78 261.858V241.815C303.78 241.203 304.086 240.71 304.698 240.336C305.31 239.962 306.092 239.775 307.044 239.775C307.86 239.775 308.54 239.962 309.084 240.336C309.662 240.71 309.951 241.203 309.951 241.815V243.345C310.529 242.359 311.379 241.475 312.501 240.693C313.623 239.877 315.034 239.469 316.734 239.469C318.196 239.469 319.488 239.945 320.61 240.897C321.732 241.849 322.565 243.073 323.109 244.569C323.993 242.835 325.115 241.56 326.475 240.744C327.869 239.894 329.297 239.469 330.759 239.469C332.323 239.469 333.785 239.877 335.145 240.693C336.539 241.475 337.661 242.648 338.511 244.212C339.395 245.742 339.837 247.612 339.837 249.822V261.858C339.837 262.402 339.514 262.895 338.868 263.337C338.222 263.779 337.44 264 336.522 264C335.638 264 334.873 263.779 334.227 263.337C333.581 262.895 333.258 262.402 333.258 261.858V249.822C333.258 248.802 333.054 247.952 332.646 247.272C332.272 246.592 331.762 246.082 331.116 245.742C330.47 245.368 329.807 245.181 329.127 245.181C328.481 245.181 327.852 245.368 327.24 245.742C326.628 246.082 326.118 246.592 325.71 247.272C325.302 247.952 325.098 248.785 325.098 249.771V261.909C325.098 262.657 324.741 263.201 324.027 263.541C323.347 263.847 322.599 264 321.783 264C321.035 264 320.304 263.847 319.59 263.541C318.876 263.201 318.519 262.657 318.519 261.909V249.822C318.519 248.87 318.315 248.054 317.907 247.374C317.533 246.694 317.023 246.167 316.377 245.793C315.765 245.419 315.102 245.232 314.388 245.232C313.708 245.232 313.062 245.402 312.45 245.742C311.838 246.082 311.328 246.592 310.92 247.272C310.546 247.952 310.359 248.802 310.359 249.822V261.858C310.359 262.402 310.036 262.895 309.39 263.337C308.744 263.779 307.962 264 307.044 264ZM349.921 264.459C348.119 264.459 346.555 263.915 345.229 262.827C343.937 261.705 343.291 259.988 343.291 257.676C343.291 255.738 343.784 254.225 344.77 253.137C345.79 252.049 347.184 251.284 348.952 250.842C350.754 250.4 352.828 250.179 355.174 250.179H357.265V249.516C357.265 248.768 357.112 248.037 356.806 247.323C356.534 246.609 356.075 246.014 355.429 245.538C354.817 245.062 353.933 244.824 352.777 244.824C351.485 244.824 350.482 244.96 349.768 245.232C349.088 245.47 348.561 245.725 348.187 245.997C347.813 246.269 347.405 246.405 346.963 246.405C346.249 246.405 345.688 246.048 345.28 245.334C344.906 244.62 344.719 243.889 344.719 243.141C344.719 242.427 345.144 241.798 345.994 241.254C346.878 240.676 347.949 240.234 349.207 239.928C350.465 239.622 351.689 239.469 352.879 239.469C355.531 239.469 357.656 239.945 359.254 240.897C360.852 241.849 362.008 243.073 362.722 244.569C363.47 246.065 363.844 247.68 363.844 249.414V261.858C363.844 262.47 363.538 262.98 362.926 263.388C362.314 263.796 361.549 264 360.631 264C359.781 264 359.067 263.796 358.489 263.388C357.945 262.98 357.673 262.47 357.673 261.858V260.43C356.755 261.484 355.667 262.419 354.409 263.235C353.185 264.051 351.689 264.459 349.921 264.459ZM352.573 259.563C353.287 259.563 354.001 259.325 354.715 258.849C355.429 258.373 356.024 257.761 356.5 257.013C357.01 256.265 357.265 255.483 357.265 254.667V253.596H356.5C355.378 253.596 354.307 253.664 353.287 253.8C352.267 253.936 351.434 254.242 350.788 254.718C350.176 255.16 349.87 255.857 349.87 256.809C349.87 257.761 350.125 258.458 350.635 258.9C351.179 259.342 351.825 259.563 352.573 259.563ZM371.938 264C371.02 264 370.255 263.779 369.643 263.337C369.031 262.895 368.725 262.402 368.725 261.858V241.815C368.725 241.203 369.031 240.71 369.643 240.336C370.255 239.962 371.02 239.775 371.938 239.775C372.788 239.775 373.485 239.962 374.029 240.336C374.607 240.71 374.896 241.203 374.896 241.815V243.906C375.27 243.158 375.763 242.461 376.375 241.815C377.021 241.135 377.752 240.574 378.568 240.132C379.384 239.69 380.251 239.469 381.169 239.469H382.75C383.396 239.469 383.957 239.758 384.433 240.336C384.909 240.88 385.147 241.543 385.147 242.325C385.147 243.141 384.909 243.838 384.433 244.416C383.957 244.96 383.396 245.232 382.75 245.232H381.169C380.217 245.232 379.282 245.555 378.364 246.201C377.48 246.813 376.749 247.68 376.171 248.802C375.593 249.89 375.304 251.216 375.304 252.78V261.858C375.304 262.402 374.981 262.895 374.335 263.337C373.689 263.779 372.89 264 371.938 264ZM397.183 264C394.123 264 391.777 263.337 390.145 262.011C388.547 260.685 387.748 258.577 387.748 255.687V231.003C387.748 230.391 388.105 229.898 388.819 229.524C389.533 229.15 390.264 228.963 391.012 228.963C391.828 228.963 392.576 229.15 393.256 229.524C393.97 229.898 394.327 230.391 394.327 231.003V239.775H400.345C400.889 239.775 401.297 240.03 401.569 240.54C401.875 241.016 402.028 241.56 402.028 242.172C402.028 242.784 401.875 243.345 401.569 243.855C401.297 244.331 400.889 244.569 400.345 244.569H394.327V255.687C394.327 256.707 394.531 257.421 394.939 257.829C395.381 258.237 396.129 258.441 397.183 258.441H399.172C400.124 258.441 400.821 258.73 401.263 259.308C401.739 259.886 401.977 260.515 401.977 261.195C401.977 261.909 401.739 262.555 401.263 263.133C400.821 263.711 400.124 264 399.172 264H397.183ZM143.189 324.306C141.081 324.306 139.126 323.932 137.324 323.184C135.522 322.402 134.077 321.161 132.989 319.461C131.935 317.727 131.408 315.432 131.408 312.576V298.449C131.408 295.593 131.935 293.315 132.989 291.615C134.077 289.881 135.522 288.64 137.324 287.892C139.126 287.11 141.098 286.719 143.24 286.719C145.62 286.719 147.711 287.127 149.513 287.943C151.349 288.725 152.777 289.83 153.797 291.258C154.851 292.686 155.378 294.403 155.378 296.409C155.378 297.735 155.106 298.619 154.562 299.061C154.018 299.469 153.185 299.673 152.063 299.673C151.145 299.673 150.363 299.52 149.717 299.214C149.105 298.874 148.782 298.33 148.748 297.582C148.748 297.174 148.68 296.698 148.544 296.154C148.442 295.576 148.221 295.015 147.881 294.471C147.541 293.927 147.014 293.468 146.3 293.094C145.62 292.72 144.668 292.533 143.444 292.533C141.71 292.533 140.384 293.026 139.466 294.012C138.548 294.964 138.089 296.443 138.089 298.449V312.576C138.089 314.616 138.548 316.112 139.466 317.064C140.418 318.016 141.778 318.492 143.546 318.492C144.702 318.492 145.62 318.305 146.3 317.931C146.98 317.557 147.473 317.098 147.779 316.554C148.119 315.976 148.34 315.381 148.442 314.769C148.578 314.157 148.68 313.579 148.748 313.035C148.816 312.219 149.156 311.675 149.768 311.403C150.38 311.097 151.128 310.944 152.012 310.944C153.168 310.944 154.018 311.165 154.562 311.607C155.106 312.049 155.378 312.916 155.378 314.208C155.378 316.248 154.851 318.033 153.797 319.563C152.777 321.093 151.349 322.266 149.513 323.082C147.677 323.898 145.569 324.306 143.189 324.306ZM162.711 324C161.759 324 160.977 323.779 160.365 323.337C159.753 322.895 159.447 322.402 159.447 321.858V287.688C159.447 287.076 159.753 286.583 160.365 286.209C160.977 285.835 161.759 285.648 162.711 285.648C163.629 285.648 164.411 285.835 165.057 286.209C165.703 286.583 166.026 287.076 166.026 287.688V303.345C166.536 302.359 167.335 301.475 168.423 300.693C169.511 299.877 170.854 299.469 172.452 299.469C174.05 299.469 175.512 299.945 176.838 300.897C178.164 301.815 179.218 303.056 180 304.62C180.816 306.184 181.224 307.918 181.224 309.822V321.858C181.224 322.572 180.884 323.116 180.204 323.49C179.524 323.83 178.759 324 177.909 324C177.161 324 176.43 323.83 175.716 323.49C175.002 323.116 174.645 322.572 174.645 321.858V309.822C174.645 309.04 174.441 308.309 174.033 307.629C173.625 306.949 173.081 306.388 172.401 305.946C171.755 305.47 171.024 305.232 170.208 305.232C169.528 305.232 168.865 305.419 168.219 305.793C167.573 306.167 167.046 306.694 166.638 307.374C166.23 308.054 166.026 308.87 166.026 309.822V321.858C166.026 322.402 165.703 322.895 165.057 323.337C164.411 323.779 163.629 324 162.711 324ZM191.343 324.459C189.541 324.459 187.977 323.915 186.651 322.827C185.359 321.705 184.713 319.988 184.713 317.676C184.713 315.738 185.206 314.225 186.192 313.137C187.212 312.049 188.606 311.284 190.374 310.842C192.176 310.4 194.25 310.179 196.596 310.179H198.687V309.516C198.687 308.768 198.534 308.037 198.228 307.323C197.956 306.609 197.497 306.014 196.851 305.538C196.239 305.062 195.355 304.824 194.199 304.824C192.907 304.824 191.904 304.96 191.19 305.232C190.51 305.47 189.983 305.725 189.609 305.997C189.235 306.269 188.827 306.405 188.385 306.405C187.671 306.405 187.11 306.048 186.702 305.334C186.328 304.62 186.141 303.889 186.141 303.141C186.141 302.427 186.566 301.798 187.416 301.254C188.3 300.676 189.371 300.234 190.629 299.928C191.887 299.622 193.111 299.469 194.301 299.469C196.953 299.469 199.078 299.945 200.676 300.897C202.274 301.849 203.43 303.073 204.144 304.569C204.892 306.065 205.266 307.68 205.266 309.414V321.858C205.266 322.47 204.96 322.98 204.348 323.388C203.736 323.796 202.971 324 202.053 324C201.203 324 200.489 323.796 199.911 323.388C199.367 322.98 199.095 322.47 199.095 321.858V320.43C198.177 321.484 197.089 322.419 195.831 323.235C194.607 324.051 193.111 324.459 191.343 324.459ZM193.995 319.563C194.709 319.563 195.423 319.325 196.137 318.849C196.851 318.373 197.446 317.761 197.922 317.013C198.432 316.265 198.687 315.483 198.687 314.667V313.596H197.922C196.8 313.596 195.729 313.664 194.709 313.8C193.689 313.936 192.856 314.242 192.21 314.718C191.598 315.16 191.292 315.857 191.292 316.809C191.292 317.761 191.547 318.458 192.057 318.9C192.601 319.342 193.247 319.563 193.995 319.563ZM213.411 294.369C212.425 294.369 211.575 294.046 210.861 293.4C210.147 292.72 209.79 291.972 209.79 291.156C209.79 290.272 210.147 289.524 210.861 288.912C211.575 288.266 212.425 287.943 213.411 287.943C214.431 287.943 215.281 288.266 215.961 288.912C216.641 289.524 216.981 290.272 216.981 291.156C216.981 291.972 216.641 292.72 215.961 293.4C215.281 294.046 214.431 294.369 213.411 294.369ZM213.411 324C212.459 324 211.677 323.779 211.065 323.337C210.453 322.895 210.147 322.402 210.147 321.858V301.815C210.147 301.203 210.453 300.71 211.065 300.336C211.677 299.962 212.459 299.775 213.411 299.775C214.329 299.775 215.111 299.962 215.757 300.336C216.403 300.71 216.726 301.203 216.726 301.815V321.858C216.726 322.402 216.403 322.895 215.757 323.337C215.111 323.779 214.329 324 213.411 324ZM225.016 324C224.064 324 223.282 323.779 222.67 323.337C222.058 322.895 221.752 322.402 221.752 321.858V301.815C221.752 301.203 222.058 300.71 222.67 300.336C223.282 299.962 224.064 299.775 225.016 299.775C225.832 299.775 226.512 299.962 227.056 300.336C227.634 300.71 227.923 301.203 227.923 301.815V303.345C228.433 302.359 229.266 301.475 230.422 300.693C231.612 299.877 233.057 299.469 234.757 299.469C236.355 299.469 237.817 299.945 239.143 300.897C240.469 301.815 241.523 303.056 242.305 304.62C243.121 306.184 243.529 307.918 243.529 309.822V321.858C243.529 322.572 243.189 323.116 242.509 323.49C241.829 323.83 241.064 324 240.214 324C239.466 324 238.735 323.83 238.021 323.49C237.307 323.116 236.95 322.572 236.95 321.858V309.822C236.95 309.04 236.746 308.309 236.338 307.629C235.964 306.949 235.437 306.388 234.757 305.946C234.077 305.47 233.329 305.232 232.513 305.232C231.833 305.232 231.17 305.419 230.524 305.793C229.878 306.167 229.351 306.694 228.943 307.374C228.535 308.054 228.331 308.87 228.331 309.822V321.858C228.331 322.402 228.008 322.895 227.362 323.337C226.716 323.779 225.934 324 225.016 324ZM269.265 325.02C268.007 325.02 266.749 324.833 265.491 324.459C264.233 324.119 263.077 323.575 262.023 322.827C260.969 322.045 260.119 321.042 259.473 319.818C258.861 318.594 258.555 317.149 258.555 315.483V295.083C258.555 293.519 258.878 292.108 259.524 290.85C260.17 289.592 261.02 288.521 262.074 287.637C263.128 286.719 264.284 286.022 265.542 285.546C266.834 285.07 268.126 284.832 269.418 284.832C270.744 284.832 271.611 285.121 272.019 285.699C272.461 286.243 272.682 286.906 272.682 287.688C272.682 288.572 272.495 289.286 272.121 289.83C271.747 290.34 271.254 290.595 270.642 290.595C269.486 290.595 268.5 290.816 267.684 291.258C266.868 291.7 266.239 292.261 265.797 292.941C265.389 293.621 265.185 294.335 265.185 295.083V315.483C265.185 316.537 265.474 317.336 266.052 317.88C266.63 318.39 267.344 318.747 268.194 318.951C269.044 319.155 269.86 319.257 270.642 319.257C271.492 319.257 272.036 319.563 272.274 320.175C272.546 320.787 272.682 321.45 272.682 322.164C272.682 323.014 272.478 323.694 272.07 324.204C271.662 324.748 270.727 325.02 269.265 325.02ZM279.456 324C278.572 324 277.858 323.796 277.314 323.388C276.804 322.98 276.549 322.487 276.549 321.909V288.861C276.549 288.147 276.855 287.62 277.467 287.28C278.079 286.906 278.742 286.719 279.456 286.719H289.35C291.084 286.719 292.733 286.974 294.297 287.484C295.861 287.96 297.136 288.844 298.122 290.136C299.108 291.428 299.601 293.281 299.601 295.695C299.601 297.769 299.21 299.503 298.428 300.897C297.646 302.257 296.592 303.226 295.266 303.804C296.32 304.178 297.238 304.705 298.02 305.385C298.802 306.031 299.414 306.898 299.856 307.986C300.298 309.04 300.519 310.417 300.519 312.117V313.188C300.519 315.84 300.06 317.965 299.142 319.563C298.258 321.127 297.034 322.266 295.47 322.98C293.94 323.66 292.223 324 290.319 324H279.456ZM283.179 318.186H288.891C290.455 318.186 291.679 317.744 292.563 316.86C293.447 315.976 293.889 314.565 293.889 312.627V311.811C293.889 309.805 293.447 308.411 292.563 307.629C291.679 306.813 290.455 306.405 288.891 306.405H283.179V318.186ZM283.179 301.203H288.891C290.285 301.203 291.305 300.795 291.951 299.979C292.631 299.163 292.971 298.109 292.971 296.817C292.971 295.899 292.801 295.134 292.461 294.522C292.121 293.876 291.645 293.383 291.033 293.043C290.421 292.703 289.69 292.533 288.84 292.533H283.179V301.203ZM315.131 324.459C312.921 324.459 310.915 324.136 309.113 323.49C307.345 322.844 305.934 322.045 304.88 321.093C303.86 320.107 303.35 319.121 303.35 318.135C303.35 317.659 303.469 317.149 303.707 316.605C303.979 316.027 304.336 315.551 304.778 315.177C305.22 314.769 305.713 314.565 306.257 314.565C306.801 314.565 307.311 314.769 307.787 315.177C308.263 315.551 308.807 316.01 309.419 316.554C310.031 317.064 310.779 317.523 311.663 317.931C312.547 318.305 313.635 318.492 314.927 318.492C315.947 318.492 316.882 318.339 317.732 318.033C318.616 317.693 319.313 317.2 319.823 316.554C320.367 315.908 320.639 315.075 320.639 314.055C320.639 312.967 320.35 312.049 319.772 311.301C319.194 310.553 318.412 309.907 317.426 309.363C316.44 308.819 315.369 308.292 314.213 307.782C313.057 307.272 311.884 306.728 310.694 306.15C309.538 305.572 308.467 304.875 307.481 304.059C306.529 303.243 305.747 302.24 305.135 301.05C304.557 299.86 304.268 298.398 304.268 296.664C304.268 294.76 304.625 293.162 305.339 291.87C306.087 290.578 307.056 289.541 308.246 288.759C309.47 287.943 310.813 287.365 312.275 287.025C313.737 286.651 315.199 286.464 316.661 286.464C317.443 286.464 318.361 286.532 319.415 286.668C320.503 286.77 321.574 286.974 322.628 287.28C323.716 287.586 324.6 288.011 325.28 288.555C325.994 289.065 326.351 289.745 326.351 290.595C326.351 290.969 326.249 291.428 326.045 291.972C325.875 292.516 325.586 293.009 325.178 293.451C324.804 293.893 324.311 294.114 323.699 294.114C323.155 294.114 322.611 293.961 322.067 293.655C321.557 293.315 320.877 292.992 320.027 292.686C319.211 292.346 318.089 292.176 316.661 292.176C315.471 292.176 314.434 292.329 313.55 292.635C312.666 292.941 312.003 293.383 311.561 293.961C311.119 294.505 310.898 295.202 310.898 296.052C310.898 296.936 311.187 297.684 311.765 298.296C312.377 298.908 313.159 299.452 314.111 299.928C315.097 300.404 316.168 300.88 317.324 301.356C318.48 301.832 319.636 302.393 320.792 303.039C321.982 303.651 323.07 304.399 324.056 305.283C325.042 306.167 325.824 307.272 326.402 308.598C326.98 309.89 327.269 311.488 327.269 313.392C327.269 315.806 326.742 317.846 325.688 319.512C324.634 321.144 323.189 322.385 321.353 323.235C319.551 324.051 317.477 324.459 315.131 324.459ZM343.205 324.306C341.097 324.306 339.142 323.932 337.34 323.184C335.538 322.402 334.093 321.161 333.005 319.461C331.951 317.727 331.424 315.432 331.424 312.576V298.449C331.424 295.593 331.951 293.315 333.005 291.615C334.093 289.881 335.538 288.64 337.34 287.892C339.142 287.11 341.114 286.719 343.256 286.719C345.636 286.719 347.727 287.127 349.529 287.943C351.365 288.725 352.793 289.83 353.813 291.258C354.867 292.686 355.394 294.403 355.394 296.409C355.394 297.735 355.122 298.619 354.578 299.061C354.034 299.469 353.201 299.673 352.079 299.673C351.161 299.673 350.379 299.52 349.733 299.214C349.121 298.874 348.798 298.33 348.764 297.582C348.764 297.174 348.696 296.698 348.56 296.154C348.458 295.576 348.237 295.015 347.897 294.471C347.557 293.927 347.03 293.468 346.316 293.094C345.636 292.72 344.684 292.533 343.46 292.533C341.726 292.533 340.4 293.026 339.482 294.012C338.564 294.964 338.105 296.443 338.105 298.449V312.576C338.105 314.616 338.564 316.112 339.482 317.064C340.434 318.016 341.794 318.492 343.562 318.492C344.718 318.492 345.636 318.305 346.316 317.931C346.996 317.557 347.489 317.098 347.795 316.554C348.135 315.976 348.356 315.381 348.458 314.769C348.594 314.157 348.696 313.579 348.764 313.035C348.832 312.219 349.172 311.675 349.784 311.403C350.396 311.097 351.144 310.944 352.028 310.944C353.184 310.944 354.034 311.165 354.578 311.607C355.122 312.049 355.394 312.916 355.394 314.208C355.394 316.248 354.867 318.033 353.813 319.563C352.793 321.093 351.365 322.266 349.529 323.082C347.693 323.898 345.585 324.306 343.205 324.306ZM361.044 325.02C359.616 325.02 358.681 324.748 358.239 324.204C357.831 323.694 357.627 323.014 357.627 322.164C357.627 321.45 357.763 320.787 358.035 320.175C358.307 319.563 358.868 319.257 359.718 319.257C360.534 319.257 361.35 319.155 362.166 318.951C363.016 318.747 363.713 318.39 364.257 317.88C364.835 317.336 365.124 316.537 365.124 315.483V295.083C365.124 294.335 364.92 293.621 364.512 292.941C364.104 292.261 363.492 291.7 362.676 291.258C361.86 290.816 360.874 290.595 359.718 290.595C359.106 290.595 358.596 290.34 358.188 289.83C357.814 289.286 357.627 288.572 357.627 287.688C357.627 286.906 357.848 286.243 358.29 285.699C358.766 285.121 359.633 284.832 360.891 284.832C362.217 284.832 363.509 285.07 364.767 285.546C366.059 286.022 367.232 286.719 368.286 287.637C369.34 288.521 370.173 289.592 370.785 290.85C371.431 292.108 371.754 293.519 371.754 295.083V315.483C371.754 317.149 371.448 318.594 370.836 319.818C370.224 321.042 369.391 322.045 368.337 322.827C367.283 323.575 366.127 324.119 364.869 324.459C363.611 324.833 362.336 325.02 361.044 325.02Z" fill="#36612B"/>
<path d="M206.131 122.229C206.131 123.193 206.004 124.209 205.75 125.275C205.547 126.342 205.191 127.332 204.684 128.246C204.176 129.16 203.516 129.922 202.703 130.531C201.891 131.141 200.9 131.445 199.732 131.445C197.955 131.445 196.635 131.141 195.771 130.531C194.908 129.871 194.299 129.059 193.943 128.094C193.588 127.129 193.385 126.113 193.334 125.047C193.334 123.93 193.309 122.889 193.258 121.924C193.207 120.959 193.029 120.172 192.725 119.562C192.471 118.902 191.887 118.572 190.973 118.572C189.957 118.572 189.068 118.953 188.307 119.715C187.545 120.426 186.885 121.365 186.326 122.533C185.768 123.701 185.285 125.021 184.879 126.494C184.523 127.967 184.219 129.439 183.965 130.912C183.762 132.334 183.609 133.705 183.508 135.025C183.406 136.295 183.355 137.336 183.355 138.148C183.355 139.215 183.381 140.484 183.432 141.957C183.533 143.43 183.787 144.852 184.193 146.223C184.6 147.543 185.209 148.686 186.021 149.65C186.834 150.564 188.002 151.021 189.525 151.021C190.541 151.021 191.531 150.895 192.496 150.641C193.461 150.387 194.426 150.107 195.391 149.803C196.355 149.447 197.32 149.143 198.285 148.889C199.301 148.635 200.316 148.508 201.332 148.508C202.5 148.508 203.465 148.99 204.227 149.955C204.988 150.869 205.369 151.91 205.369 153.078C205.369 154.703 204.861 156.227 203.846 157.648C202.83 159.02 201.561 160.238 200.037 161.305C198.564 162.371 196.939 163.209 195.162 163.818C193.436 164.428 191.861 164.732 190.439 164.732C186.783 164.732 183.686 163.895 181.146 162.219C178.607 160.594 176.551 158.486 174.977 155.896C173.402 153.256 172.26 150.336 171.549 147.137C170.889 143.887 170.559 140.662 170.559 137.463C170.559 135.33 170.762 132.994 171.168 130.455C171.574 127.916 172.184 125.377 172.996 122.838C173.809 120.248 174.824 117.76 176.043 115.373C177.312 112.986 178.785 110.879 180.461 109.051C182.137 107.223 184.016 105.75 186.098 104.633C188.23 103.516 190.566 102.957 193.105 102.957C195.594 102.957 197.676 103.592 199.352 104.861C201.027 106.08 202.373 107.654 203.389 109.584C204.404 111.463 205.115 113.545 205.521 115.83C205.928 118.064 206.131 120.197 206.131 122.229ZM243.76 141.271C243.76 142.135 243.734 143.43 243.684 145.156C243.684 146.832 243.607 148.609 243.455 150.488C243.354 152.316 243.201 154.068 242.998 155.744C242.795 157.369 242.541 158.562 242.236 159.324C241.83 160.289 241.297 161.127 240.637 161.838C239.977 162.549 239.088 162.904 237.971 162.904C236.244 162.904 235 162.219 234.238 160.848C233.477 159.477 232.969 157.775 232.715 155.744C232.461 153.713 232.359 151.504 232.41 149.117C232.461 146.73 232.436 144.521 232.334 142.49C232.232 140.459 231.953 138.758 231.496 137.387C231.039 136.016 230.201 135.33 228.982 135.33C227.307 135.33 226.012 135.609 225.098 136.168C224.234 136.676 223.6 137.361 223.193 138.225C222.838 139.088 222.609 140.078 222.508 141.195C222.457 142.312 222.381 143.48 222.279 144.699C222.178 145.867 222.102 147.441 222.051 149.422C222 151.402 221.771 153.357 221.365 155.287C220.959 157.217 220.273 158.893 219.309 160.314C218.395 161.686 217.023 162.371 215.195 162.371C214.078 162.371 213.164 161.939 212.453 161.076C211.793 160.213 211.26 159.096 210.854 157.725C210.447 156.354 210.143 154.83 209.939 153.154C209.787 151.479 209.686 149.854 209.635 148.279C209.635 146.654 209.635 145.182 209.635 143.861C209.686 142.541 209.711 141.551 209.711 140.891C209.711 139.875 209.736 138.199 209.787 135.863C209.889 133.527 210.066 130.938 210.32 128.094C210.574 125.199 210.904 122.229 211.311 119.182C211.717 116.135 212.25 113.367 212.91 110.879C213.57 108.34 214.357 106.283 215.271 104.709C216.236 103.135 217.354 102.373 218.623 102.424C219.436 102.475 220.121 102.83 220.68 103.49C221.289 104.15 221.771 105.014 222.127 106.08C222.533 107.096 222.863 108.213 223.117 109.432C223.371 110.65 223.549 111.869 223.65 113.088C223.803 114.256 223.879 115.348 223.879 116.363C223.93 117.379 223.955 118.166 223.955 118.725C223.955 120.045 223.93 121.365 223.879 122.686C223.828 124.006 223.752 125.326 223.65 126.646C224.818 125.072 226.367 123.777 228.297 122.762C230.277 121.746 232.258 121.238 234.238 121.238C236.777 121.238 238.682 121.949 239.951 123.371C241.271 124.742 242.211 126.469 242.77 128.551C243.328 130.582 243.633 132.766 243.684 135.102C243.734 137.387 243.76 139.443 243.76 141.271ZM281.541 150.26C281.541 151.174 281.49 152.367 281.389 153.84C281.338 155.312 281.135 156.76 280.779 158.182C280.424 159.553 279.865 160.746 279.104 161.762C278.342 162.777 277.275 163.285 275.904 163.285C274.025 163.285 272.578 162.676 271.562 161.457C270.547 160.238 270.064 158.715 270.115 156.887C268.49 158.309 266.637 159.426 264.555 160.238C262.523 161.051 260.441 161.457 258.309 161.457C256.836 161.457 255.439 161.102 254.119 160.391C252.799 159.68 251.631 158.766 250.615 157.648C249.6 156.531 248.787 155.287 248.178 153.916C247.568 152.494 247.264 151.098 247.264 149.727C247.264 147.289 248 145.156 249.473 143.328C250.996 141.5 252.85 139.951 255.033 138.682C257.217 137.361 259.527 136.32 261.965 135.559C264.453 134.797 266.662 134.289 268.592 134.035C268.592 133.781 268.592 133.553 268.592 133.35C268.643 133.146 268.668 132.918 268.668 132.664C268.668 131.09 268.236 129.82 267.373 128.855C266.51 127.891 265.291 127.408 263.717 127.408C262.447 127.408 261.355 127.637 260.441 128.094C259.527 128.5 258.664 128.982 257.852 129.541C257.039 130.049 256.227 130.531 255.414 130.988C254.602 131.395 253.688 131.598 252.672 131.598C251.555 131.598 250.59 131.242 249.777 130.531C249.016 129.82 248.635 128.906 248.635 127.789C248.635 126.113 249.117 124.59 250.082 123.219C251.098 121.848 252.342 120.705 253.814 119.791C255.338 118.826 256.963 118.09 258.689 117.582C260.467 117.023 262.092 116.744 263.564 116.744C264.936 116.744 266.307 116.922 267.678 117.277C269.049 117.582 270.344 118.09 271.562 118.801C272.781 119.461 273.873 120.299 274.838 121.314C275.854 122.279 276.666 123.422 277.275 124.742C278.189 126.621 278.926 128.627 279.484 130.76C280.043 132.842 280.475 135 280.779 137.234C281.084 139.418 281.287 141.627 281.389 143.861C281.49 146.045 281.541 148.178 281.541 150.26ZM269.354 147.822L269.125 142.643C269.023 142.643 268.922 142.643 268.82 142.643C268.719 142.592 268.617 142.566 268.516 142.566C267.855 142.566 267.018 142.744 266.002 143.1C265.037 143.404 264.098 143.861 263.184 144.471C262.27 145.029 261.482 145.664 260.822 146.375C260.213 147.086 259.908 147.822 259.908 148.584C259.908 149.295 260.162 149.777 260.67 150.031C261.178 150.285 261.762 150.412 262.422 150.412C263.539 150.412 264.732 150.133 266.002 149.574C267.271 148.965 268.389 148.381 269.354 147.822ZM298.68 107.832C298.68 108.543 298.477 109.178 298.07 109.736C297.715 110.295 297.232 110.803 296.623 111.26C296.014 111.666 295.354 111.996 294.643 112.25C293.932 112.453 293.271 112.555 292.662 112.555C291.646 112.555 290.758 112.301 289.996 111.793C289.234 111.285 288.854 110.498 288.854 109.432C288.854 108.67 289.031 108.01 289.387 107.451C289.793 106.842 290.275 106.359 290.834 106.004C291.393 105.598 292.027 105.293 292.738 105.09C293.449 104.887 294.135 104.785 294.795 104.785C295.76 104.785 296.648 105.014 297.461 105.471C298.273 105.928 298.68 106.715 298.68 107.832ZM299.289 133.73C299.289 134.441 299.289 135.203 299.289 136.016C299.289 136.777 299.264 137.514 299.213 138.225C299.162 139.088 299.137 140.256 299.137 141.729C299.137 143.15 299.086 144.699 298.984 146.375C298.883 148.051 298.705 149.752 298.451 151.479C298.248 153.205 297.893 154.779 297.385 156.201C296.877 157.623 296.191 158.791 295.328 159.705C294.516 160.568 293.475 161.025 292.205 161.076C291.24 161.127 290.428 160.746 289.768 159.934C289.107 159.121 288.549 158.08 288.092 156.811C287.686 155.49 287.381 154.043 287.178 152.469C286.975 150.844 286.822 149.295 286.721 147.822C286.619 146.299 286.568 144.902 286.568 143.633C286.568 142.363 286.568 141.424 286.568 140.814C286.568 140.002 286.568 138.859 286.568 137.387C286.568 135.863 286.619 134.238 286.721 132.512C286.822 130.785 287 129.033 287.254 127.256C287.559 125.479 287.965 123.854 288.473 122.381C289.031 120.908 289.742 119.715 290.605 118.801C291.469 117.887 292.561 117.43 293.881 117.43C295.252 117.43 296.293 118.115 297.004 119.486C297.715 120.857 298.248 122.457 298.604 124.285C298.959 126.113 299.162 127.941 299.213 129.77C299.264 131.547 299.289 132.867 299.289 133.73ZM326.33 163.133C325.467 163.133 324.781 162.727 324.273 161.914C323.766 161.152 323.385 160.264 323.131 159.248C322.877 158.232 322.699 157.217 322.598 156.201C322.547 155.135 322.521 154.322 322.521 153.764C322.521 152.24 322.598 150.717 322.75 149.193C322.953 147.67 323.156 146.146 323.359 144.623C323.613 143.1 323.816 141.576 323.969 140.053C324.172 138.529 324.273 137.006 324.273 135.482C324.273 134.873 324.248 134.213 324.197 133.502C324.146 132.791 324.02 132.131 323.816 131.521C323.664 130.861 323.385 130.328 322.979 129.922C322.572 129.516 322.039 129.312 321.379 129.312C320.922 129.312 320.414 129.693 319.855 130.455C319.297 131.166 318.764 132.004 318.256 132.969C317.799 133.883 317.393 134.822 317.037 135.787C316.732 136.701 316.58 137.387 316.58 137.844C316.58 138.961 316.58 140.104 316.58 141.271C316.631 142.389 316.656 143.531 316.656 144.699V149.117C316.605 150.031 316.529 150.971 316.428 151.936C316.326 152.9 316.174 153.84 315.971 154.754C315.818 155.668 315.59 156.557 315.285 157.42C314.98 158.232 314.574 158.969 314.066 159.629C313.609 160.238 313.051 160.746 312.391 161.152C311.73 161.559 310.943 161.762 310.029 161.762C309.014 161.762 308.176 161.432 307.516 160.771C306.855 160.111 306.322 159.273 305.916 158.258C305.51 157.191 305.205 156.023 305.002 154.754C304.85 153.434 304.723 152.164 304.621 150.945C304.57 149.676 304.545 148.533 304.545 147.518C304.596 146.451 304.621 145.613 304.621 145.004V141.424C304.621 139.494 304.57 137.59 304.469 135.711C304.418 133.832 304.393 131.953 304.393 130.074C304.393 129.059 304.393 127.764 304.393 126.189C304.443 124.615 304.646 123.092 305.002 121.619C305.357 120.096 305.941 118.801 306.754 117.734C307.566 116.668 308.76 116.135 310.334 116.135C311.045 116.135 311.68 116.363 312.238 116.82C312.797 117.277 313.279 117.836 313.686 118.496C314.143 119.156 314.498 119.867 314.752 120.629C315.057 121.391 315.285 122.051 315.438 122.609C315.945 121.898 316.529 121.213 317.189 120.553C317.9 119.893 318.688 119.309 319.551 118.801C320.414 118.293 321.379 117.887 322.445 117.582C323.512 117.277 324.73 117.125 326.102 117.125C328.691 117.125 330.697 117.76 332.119 119.029C333.592 120.248 334.658 121.797 335.318 123.676C336.029 125.504 336.461 127.484 336.613 129.617C336.766 131.75 336.842 133.68 336.842 135.406C336.842 136.27 336.766 137.564 336.613 139.291C336.461 140.967 336.207 142.846 335.852 144.928C335.547 146.959 335.115 149.066 334.557 151.25C333.998 153.383 333.338 155.338 332.576 157.115C331.814 158.893 330.9 160.34 329.834 161.457C328.818 162.574 327.65 163.133 326.33 163.133Z" fill="#36612B"/>
<rect x="2.5" y="2.5" width="499" height="435" rx="97.5" stroke="#36612B" stroke-width="5"/>
</svg>
