<svg width="507" height="440" viewBox="0 0 507 440" fill="none" xmlns="http://www.w3.org/2000/svg">
<path d="M153.709 282.306C151.465 282.306 149.442 281.932 147.64 281.184C145.838 280.402 144.393 279.161 143.305 277.461C142.251 275.727 141.724 273.432 141.724 270.576V256.449C141.724 253.593 142.251 251.315 143.305 249.615C144.393 247.881 145.821 246.64 147.589 245.892C149.391 245.11 151.363 244.719 153.505 244.719C155.885 244.719 157.976 245.11 159.778 245.892C161.614 246.674 163.059 247.796 164.113 249.258C165.167 250.72 165.694 252.471 165.694 254.511C165.694 255.769 165.422 256.619 164.878 257.061C164.334 257.469 163.501 257.673 162.379 257.673C161.495 257.673 160.73 257.52 160.084 257.214C159.438 256.908 159.098 256.364 159.064 255.582C159.03 254.766 158.86 253.984 158.554 253.236C158.282 252.454 157.772 251.808 157.024 251.298C156.31 250.788 155.205 250.533 153.709 250.533C152.043 250.533 150.734 251.026 149.782 252.012C148.864 252.964 148.405 254.443 148.405 256.449V270.576C148.405 272.582 148.864 274.078 149.782 275.064C150.734 276.016 152.043 276.492 153.709 276.492C155.375 276.492 156.684 276.016 157.636 275.064C158.588 274.078 159.064 272.582 159.064 270.576V267.618H154.933C154.287 267.618 153.777 267.346 153.403 266.802C153.063 266.258 152.893 265.663 152.893 265.017C152.893 264.371 153.063 263.776 153.403 263.232C153.777 262.688 154.287 262.416 154.933 262.416H163.603C164.283 262.416 164.793 262.637 165.133 263.079C165.507 263.487 165.694 263.997 165.694 264.609V270.576C165.694 273.432 165.167 275.727 164.113 277.461C163.059 279.161 161.614 280.402 159.778 281.184C157.976 281.932 155.953 282.306 153.709 282.306ZM182.496 282.306C180.252 282.306 178.229 281.932 176.427 281.184C174.625 280.402 173.18 279.161 172.092 277.461C171.038 275.727 170.511 273.432 170.511 270.576V256.449C170.511 253.593 171.038 251.315 172.092 249.615C173.18 247.881 174.608 246.64 176.376 245.892C178.178 245.11 180.218 244.719 182.496 244.719C184.74 244.719 186.763 245.11 188.565 245.892C190.401 246.64 191.846 247.881 192.9 249.615C193.954 251.315 194.481 253.593 194.481 256.449V270.576C194.481 273.432 193.954 275.727 192.9 277.461C191.846 279.161 190.401 280.402 188.565 281.184C186.763 281.932 184.74 282.306 182.496 282.306ZM182.496 276.492C184.162 276.492 185.471 276.016 186.423 275.064C187.375 274.112 187.851 272.616 187.851 270.576V256.449C187.851 254.409 187.375 252.913 186.423 251.961C185.471 251.009 184.162 250.533 182.496 250.533C180.83 250.533 179.521 251.009 178.569 251.961C177.651 252.913 177.192 254.409 177.192 256.449V270.576C177.192 272.616 177.651 274.112 178.569 275.064C179.521 276.016 180.83 276.492 182.496 276.492ZM211.781 282.306C209.537 282.306 207.514 281.932 205.712 281.184C203.91 280.402 202.465 279.161 201.377 277.461C200.323 275.727 199.796 273.432 199.796 270.576V256.449C199.796 253.593 200.323 251.315 201.377 249.615C202.465 247.881 203.893 246.64 205.661 245.892C207.463 245.11 209.503 244.719 211.781 244.719C214.025 244.719 216.048 245.11 217.85 245.892C219.686 246.64 221.131 247.881 222.185 249.615C223.239 251.315 223.766 253.593 223.766 256.449V270.576C223.766 273.432 223.239 275.727 222.185 277.461C221.131 279.161 219.686 280.402 217.85 281.184C216.048 281.932 214.025 282.306 211.781 282.306ZM211.781 276.492C213.447 276.492 214.756 276.016 215.708 275.064C216.66 274.112 217.136 272.616 217.136 270.576V256.449C217.136 254.409 216.66 252.913 215.708 251.961C214.756 251.009 213.447 250.533 211.781 250.533C210.115 250.533 208.806 251.009 207.854 251.961C206.936 252.913 206.477 254.409 206.477 256.449V270.576C206.477 272.616 206.936 274.112 207.854 275.064C208.806 276.016 210.115 276.492 211.781 276.492ZM232.396 282C231.512 282 230.798 281.796 230.254 281.388C229.744 280.98 229.489 280.487 229.489 279.909V246.81C229.489 246.232 229.744 245.739 230.254 245.331C230.798 244.923 231.512 244.719 232.396 244.719H241.423C243.701 244.719 245.741 245.11 247.543 245.892C249.345 246.64 250.773 247.881 251.827 249.615C252.915 251.315 253.459 253.593 253.459 256.449V270.27C253.459 273.126 252.915 275.421 251.827 277.155C250.773 278.855 249.345 280.096 247.543 280.878C245.741 281.626 243.701 282 241.423 282H232.396ZM236.119 276.186H241.423C243.123 276.186 244.449 275.71 245.401 274.758C246.353 273.772 246.829 272.276 246.829 270.27V256.449C246.829 254.443 246.353 252.964 245.401 252.012C244.449 251.026 243.14 250.533 241.474 250.533H236.119V276.186ZM262.438 282C261.622 282 260.857 281.83 260.143 281.49C259.463 281.116 259.123 280.572 259.123 279.858V246.81C259.123 246.232 259.361 245.739 259.837 245.331C260.313 244.923 260.925 244.719 261.673 244.719H271.873C274.049 244.719 276.004 245.093 277.738 245.841C279.506 246.589 280.9 247.813 281.92 249.513C282.94 251.179 283.45 253.406 283.45 256.194V256.5C283.45 259.288 282.923 261.532 281.869 263.232C280.815 264.932 279.37 266.173 277.534 266.955C275.732 267.703 273.709 268.077 271.465 268.077H265.753V279.858C265.753 280.572 265.413 281.116 264.733 281.49C264.053 281.83 263.288 282 262.438 282ZM265.753 262.875H271.465C273.165 262.875 274.474 262.399 275.392 261.447C276.344 260.461 276.82 258.982 276.82 257.01V256.449C276.82 254.443 276.344 252.964 275.392 252.012C274.474 251.026 273.165 250.533 271.465 250.533H265.753V262.875ZM290.419 282C289.705 282 289.042 281.83 288.43 281.49C287.818 281.116 287.512 280.572 287.512 279.858V246.861C287.512 246.147 287.818 245.62 288.43 245.28C289.042 244.906 289.705 244.719 290.419 244.719H308.575C309.323 244.719 309.85 245.025 310.156 245.637C310.496 246.249 310.666 246.895 310.666 247.575C310.666 248.391 310.479 249.088 310.105 249.666C309.765 250.244 309.255 250.533 308.575 250.533H294.142V260.733H301.894C302.574 260.733 303.084 261.005 303.424 261.549C303.798 262.059 303.985 262.671 303.985 263.385C303.985 263.963 303.815 264.541 303.475 265.119C303.169 265.663 302.642 265.935 301.894 265.935H294.142V276.186H308.575C309.255 276.186 309.765 276.475 310.105 277.053C310.479 277.631 310.666 278.328 310.666 279.144C310.666 279.824 310.496 280.47 310.156 281.082C309.85 281.694 309.323 282 308.575 282H290.419ZM317.871 282C317.055 282 316.29 281.83 315.576 281.49C314.896 281.116 314.556 280.572 314.556 279.858V246.81C314.556 246.232 314.794 245.739 315.27 245.331C315.746 244.923 316.358 244.719 317.106 244.719H327.306C329.482 244.719 331.437 245.093 333.171 245.841C334.939 246.589 336.333 247.813 337.353 249.513C338.373 251.179 338.883 253.406 338.883 256.194V256.5C338.883 259.288 338.356 261.532 337.302 263.232C336.248 264.932 334.803 266.173 332.967 266.955C331.165 267.703 329.142 268.077 326.898 268.077H321.186V279.858C321.186 280.572 320.846 281.116 320.166 281.49C319.486 281.83 318.721 282 317.871 282ZM321.186 262.875H326.898C328.598 262.875 329.907 262.399 330.825 261.447C331.777 260.461 332.253 258.982 332.253 257.01V256.449C332.253 254.443 331.777 252.964 330.825 252.012C329.907 251.026 328.598 250.533 326.898 250.533H321.186V262.875ZM345.851 282C345.137 282 344.474 281.83 343.862 281.49C343.25 281.116 342.944 280.572 342.944 279.858V246.861C342.944 246.147 343.25 245.62 343.862 245.28C344.474 244.906 345.137 244.719 345.851 244.719H364.007C364.755 244.719 365.282 245.025 365.588 245.637C365.928 246.249 366.098 246.895 366.098 247.575C366.098 248.391 365.911 249.088 365.537 249.666C365.197 250.244 364.687 250.533 364.007 250.533H349.574V260.733H357.326C358.006 260.733 358.516 261.005 358.856 261.549C359.23 262.059 359.417 262.671 359.417 263.385C359.417 263.963 359.247 264.541 358.907 265.119C358.601 265.663 358.074 265.935 357.326 265.935H349.574V276.186H364.007C364.687 276.186 365.197 276.475 365.537 277.053C365.911 277.631 366.098 278.328 366.098 279.144C366.098 279.824 365.928 280.47 365.588 281.082C365.282 281.694 364.755 282 364.007 282H345.851Z" fill="#36612B"/>
<path d="M174.291 107.527C174.291 108.695 173.91 109.711 173.148 110.574C172.438 111.438 171.574 112.148 170.559 112.707C169.645 113.266 168.705 113.875 167.74 114.535C166.775 115.145 165.887 115.855 165.074 116.668C164.262 117.43 163.602 118.293 163.094 119.258C162.586 120.223 162.332 121.314 162.332 122.533C162.332 123.6 162.586 124.564 163.094 125.428C163.602 126.291 164.211 127.154 164.922 128.018C165.684 128.83 166.496 129.693 167.359 130.607C168.273 131.471 169.086 132.461 169.797 133.578C170.559 134.645 171.193 135.863 171.701 137.234C172.209 138.605 172.463 140.205 172.463 142.033C172.463 143.303 172.184 144.75 171.625 146.375C171.117 147.949 170.406 149.549 169.492 151.174C168.578 152.799 167.486 154.373 166.217 155.896C164.998 157.42 163.678 158.791 162.256 160.01C160.885 161.178 159.438 162.117 157.914 162.828C156.391 163.59 154.918 163.971 153.496 163.971C151.922 163.971 150.525 163.539 149.307 162.676C148.088 161.812 147.479 160.518 147.479 158.791C147.479 157.623 147.758 156.557 148.316 155.592C148.875 154.576 149.561 153.611 150.373 152.697C151.186 151.783 152.074 150.895 153.039 150.031C154.055 149.168 154.969 148.305 155.781 147.441C156.594 146.578 157.279 145.689 157.838 144.775C158.396 143.811 158.676 142.795 158.676 141.729C158.676 140.256 158.143 138.758 157.076 137.234C156.061 135.66 154.918 134.061 153.648 132.436C152.379 130.76 151.211 129.059 150.145 127.332C149.129 125.605 148.621 123.854 148.621 122.076C148.621 119.893 149.205 117.607 150.373 115.221C151.541 112.783 153.039 110.574 154.867 108.594C156.695 106.562 158.752 104.887 161.037 103.566C163.322 102.246 165.582 101.586 167.816 101.586C169.594 101.586 171.117 102.119 172.387 103.186C173.656 104.252 174.291 105.699 174.291 107.527ZM193.486 183.166C192.268 183.166 190.871 182.963 189.297 182.557C187.773 182.201 186.326 181.668 184.955 180.957C183.584 180.246 182.416 179.383 181.451 178.367C180.537 177.352 180.08 176.184 180.08 174.863C180.08 174.355 180.207 173.848 180.461 173.34C180.715 172.832 181.045 172.375 181.451 171.969C181.908 171.613 182.391 171.309 182.898 171.055C183.406 170.852 183.939 170.75 184.498 170.75C185.107 170.75 185.691 170.826 186.25 170.979C186.859 171.182 187.469 171.41 188.078 171.664C188.738 171.918 189.373 172.146 189.982 172.35C190.643 172.553 191.328 172.654 192.039 172.654C193.309 172.654 194.4 172.223 195.314 171.359C196.279 170.496 197.092 169.354 197.752 167.932C198.412 166.561 198.945 165.012 199.352 163.285C199.758 161.609 200.062 159.934 200.266 158.258C200.52 156.582 200.697 155.008 200.799 153.535C200.9 152.062 200.977 150.869 201.027 149.955C199.25 152.646 197.473 154.729 195.695 156.201C193.969 157.623 191.836 158.334 189.297 158.334C187.367 158.334 185.666 157.928 184.193 157.115C182.771 156.303 181.553 155.236 180.537 153.916C179.521 152.596 178.684 151.098 178.023 149.422C177.363 147.695 176.855 145.918 176.5 144.09C176.195 142.262 175.992 140.484 175.891 138.758C175.789 136.98 175.789 135.355 175.891 133.883C175.941 132.766 176.068 131.318 176.271 129.541C176.525 127.713 176.906 125.936 177.414 124.209C177.922 122.482 178.633 121.035 179.547 119.867C180.461 118.648 181.654 118.09 183.127 118.191C184.092 118.242 184.879 118.674 185.488 119.486C186.098 120.248 186.58 121.213 186.936 122.381C187.342 123.549 187.621 124.844 187.773 126.266C187.977 127.637 188.104 129.008 188.154 130.379C188.205 131.75 188.205 133.02 188.154 134.188C188.154 135.305 188.154 136.168 188.154 136.777C188.154 137.641 188.18 138.504 188.23 139.367C188.281 140.23 188.459 141.018 188.764 141.729C189.068 142.389 189.525 142.922 190.135 143.328C190.795 143.734 191.709 143.938 192.877 143.938C194.197 143.938 195.238 143.607 196 142.947C196.812 142.287 197.396 141.475 197.752 140.51C198.158 139.494 198.412 138.428 198.514 137.311C198.615 136.143 198.666 135.051 198.666 134.035C198.666 133.324 198.666 132.461 198.666 131.445C198.666 130.43 198.666 129.363 198.666 128.246C198.717 127.129 198.818 126.037 198.971 124.971C199.174 123.854 199.453 122.863 199.809 122C200.215 121.086 200.723 120.35 201.332 119.791C201.992 119.232 202.83 118.953 203.846 118.953C205.115 118.953 206.207 119.461 207.121 120.477C208.035 121.441 208.797 122.736 209.406 124.361C210.066 125.936 210.574 127.688 210.93 129.617C211.336 131.547 211.641 133.477 211.844 135.406C212.047 137.285 212.174 139.037 212.225 140.662C212.326 142.236 212.377 143.48 212.377 144.395C212.377 146.527 212.301 148.965 212.148 151.707C211.996 154.398 211.691 157.191 211.234 160.086C210.828 162.93 210.193 165.723 209.33 168.465C208.467 171.258 207.324 173.746 205.902 175.93C204.531 178.113 202.83 179.865 200.799 181.186C198.768 182.506 196.33 183.166 193.486 183.166ZM263.564 135.863C263.564 136.828 263.564 138.148 263.564 139.824C263.564 141.449 263.514 143.227 263.412 145.156C263.361 147.086 263.209 149.041 262.955 151.021C262.701 152.951 262.295 154.703 261.736 156.277C261.229 157.852 260.568 159.146 259.756 160.162C258.943 161.178 257.902 161.686 256.633 161.686C255.516 161.686 254.652 161.229 254.043 160.314C253.484 159.35 253.078 158.232 252.824 156.963C252.57 155.693 252.418 154.398 252.367 153.078C252.367 151.758 252.367 150.717 252.367 149.955C252.367 147.67 252.443 145.436 252.596 143.252C252.748 141.068 252.824 138.834 252.824 136.549C252.824 136.295 252.824 135.838 252.824 135.178C252.824 134.518 252.773 133.857 252.672 133.197C252.57 132.537 252.393 131.953 252.139 131.445C251.936 130.938 251.605 130.684 251.148 130.684C250.234 130.684 249.498 131.166 248.939 132.131C248.381 133.045 247.924 134.137 247.568 135.406C247.213 136.676 246.959 137.945 246.807 139.215C246.654 140.434 246.553 141.348 246.502 141.957C246.4 142.617 246.299 143.607 246.197 144.928C246.146 146.248 246.045 147.695 245.893 149.27C245.791 150.844 245.588 152.469 245.283 154.145C245.029 155.77 244.674 157.268 244.217 158.639C243.811 159.959 243.277 161.051 242.617 161.914C241.957 162.777 241.145 163.209 240.18 163.209C238.961 163.209 238.021 162.676 237.361 161.609C236.701 160.543 236.219 159.299 235.914 157.877C235.609 156.455 235.406 155.008 235.305 153.535C235.254 152.062 235.229 150.92 235.229 150.107C235.229 149.244 235.229 148.406 235.229 147.594C235.279 146.781 235.305 145.943 235.305 145.08C235.305 144.725 235.305 144.141 235.305 143.328C235.305 142.516 235.279 141.627 235.229 140.662C235.229 139.646 235.178 138.605 235.076 137.539C235.025 136.473 234.924 135.508 234.771 134.645C234.619 133.73 234.391 132.994 234.086 132.436C233.781 131.877 233.426 131.598 233.02 131.598C232.359 131.598 231.75 132.029 231.191 132.893C230.633 133.705 230.15 134.695 229.744 135.863C229.338 136.98 229.008 138.098 228.754 139.215C228.551 140.332 228.449 141.145 228.449 141.652V142.109C228.449 144.547 228.602 146.934 228.906 149.27C229.211 151.605 229.363 153.992 229.363 156.43C229.363 157.852 228.906 159.172 227.992 160.391C227.078 161.559 225.809 162.143 224.184 162.143C223.016 162.143 222.051 161.711 221.289 160.848C220.527 159.934 219.893 158.766 219.385 157.344C218.877 155.922 218.471 154.373 218.166 152.697C217.912 150.971 217.734 149.295 217.633 147.67C217.531 145.994 217.455 144.496 217.404 143.176C217.404 141.805 217.404 140.789 217.404 140.129C217.404 139.367 217.379 138.25 217.328 136.777C217.328 135.305 217.354 133.705 217.404 131.979C217.506 130.252 217.658 128.5 217.861 126.723C218.064 124.895 218.395 123.244 218.852 121.771C219.309 120.299 219.893 119.105 220.604 118.191C221.365 117.227 222.33 116.744 223.498 116.744C224.818 116.744 225.885 117.1 226.697 117.811C227.561 118.521 227.992 119.588 227.992 121.01C227.992 121.314 227.967 121.619 227.916 121.924C227.916 122.229 227.891 122.508 227.84 122.762C228.398 121.949 229.084 121.137 229.896 120.324C230.709 119.461 231.572 118.699 232.486 118.039C233.451 117.328 234.467 116.77 235.533 116.363C236.6 115.906 237.666 115.678 238.732 115.678C239.748 115.678 240.662 115.957 241.475 116.516C242.287 117.074 242.998 117.785 243.607 118.648C244.217 119.461 244.725 120.35 245.131 121.314C245.537 122.279 245.816 123.193 245.969 124.057C246.477 123.143 247.086 122.229 247.797 121.314C248.559 120.35 249.371 119.512 250.234 118.801C251.098 118.09 252.037 117.506 253.053 117.049C254.119 116.592 255.211 116.363 256.328 116.363C257.395 116.363 258.309 116.744 259.07 117.506C259.832 118.268 260.492 119.258 261.051 120.477C261.609 121.645 262.041 122.99 262.346 124.514C262.65 125.986 262.904 127.459 263.107 128.932C263.311 130.354 263.438 131.699 263.488 132.969C263.539 134.188 263.564 135.152 263.564 135.863ZM304.621 135.863C304.621 137.336 304.494 139.012 304.24 140.891C304.037 142.719 303.682 144.598 303.174 146.527C302.717 148.457 302.082 150.336 301.27 152.164C300.508 153.992 299.543 155.643 298.375 157.115C297.258 158.537 295.938 159.68 294.414 160.543C292.941 161.406 291.215 161.838 289.234 161.838C287.152 161.838 285.248 161.355 283.521 160.391C281.846 159.426 280.398 158.105 279.18 156.43C279.027 157.801 278.469 159.02 277.504 160.086C276.539 161.102 275.32 161.609 273.848 161.609C272.984 161.609 272.248 161.178 271.639 160.314C271.08 159.451 270.623 158.359 270.268 157.039C269.912 155.668 269.633 154.17 269.43 152.545C269.277 150.92 269.176 149.346 269.125 147.822C269.074 146.299 269.049 144.928 269.049 143.709C269.049 142.49 269.049 141.627 269.049 141.119C269.049 139.393 269.049 137.666 269.049 135.939C269.1 134.213 269.15 132.461 269.201 130.684C269.201 129.82 269.176 128.525 269.125 126.799C269.125 125.072 269.15 123.168 269.201 121.086C269.252 118.953 269.354 116.795 269.506 114.611C269.709 112.377 270.039 110.346 270.496 108.518C270.953 106.689 271.588 105.191 272.4 104.023C273.213 102.855 274.254 102.246 275.523 102.195C276.539 102.195 277.402 102.551 278.113 103.262C278.824 103.973 279.408 104.912 279.865 106.08C280.373 107.248 280.754 108.568 281.008 110.041C281.312 111.463 281.516 112.91 281.617 114.383C281.77 115.805 281.846 117.176 281.846 118.496C281.896 119.766 281.922 120.807 281.922 121.619C281.922 121.771 281.896 122.127 281.846 122.686C281.846 123.193 281.846 123.752 281.846 124.361C281.846 124.971 281.846 125.529 281.846 126.037C281.846 126.494 281.846 126.748 281.846 126.799C282.303 125.834 282.963 124.895 283.826 123.98C284.689 123.066 285.654 122.254 286.721 121.543C287.787 120.832 288.904 120.248 290.072 119.791C291.24 119.334 292.357 119.105 293.424 119.105C295.557 119.105 297.334 119.664 298.756 120.781C300.229 121.848 301.396 123.219 302.26 124.895C303.123 126.57 303.732 128.398 304.088 130.379C304.443 132.309 304.621 134.137 304.621 135.863ZM293.424 138.148C293.424 137.539 293.373 136.879 293.271 136.168C293.221 135.457 293.043 134.797 292.738 134.188C292.484 133.578 292.104 133.07 291.596 132.664C291.139 132.258 290.529 132.055 289.768 132.055C288.955 132.055 288.143 132.232 287.33 132.588C286.568 132.943 285.832 133.4 285.121 133.959C284.41 134.518 283.75 135.127 283.141 135.787C282.531 136.396 281.998 137.006 281.541 137.615L280.779 144.395C281.592 145.562 282.582 146.502 283.75 147.213C284.918 147.873 286.238 148.203 287.711 148.203C288.828 148.203 289.742 147.848 290.453 147.137C291.215 146.426 291.799 145.562 292.205 144.547C292.662 143.48 292.967 142.363 293.119 141.195C293.322 140.027 293.424 139.012 293.424 138.148ZM323.74 163.209C321.15 163.209 318.891 162.523 316.961 161.152C315.031 159.781 313.406 158.029 312.086 155.896C310.766 153.764 309.775 151.402 309.115 148.812C308.455 146.172 308.125 143.582 308.125 141.043C308.125 138.352 308.455 135.584 309.115 132.74C309.775 129.846 310.791 127.23 312.162 124.895C313.533 122.508 315.285 120.578 317.418 119.105C319.551 117.582 322.09 116.82 325.035 116.82C327.879 116.82 330.291 117.607 332.271 119.182C334.303 120.705 335.928 122.635 337.146 124.971C338.365 127.256 339.229 129.77 339.736 132.512C340.244 135.254 340.422 137.844 340.27 140.281C340.117 142.973 339.686 145.689 338.975 148.432C338.314 151.174 337.324 153.637 336.004 155.82C334.684 158.004 333.008 159.781 330.977 161.152C328.945 162.523 326.533 163.209 323.74 163.209ZM324.502 128.779C323.74 128.779 323.055 129.186 322.445 129.998C321.887 130.811 321.404 131.801 320.998 132.969C320.643 134.137 320.363 135.381 320.16 136.701C319.957 137.971 319.855 139.088 319.855 140.053C319.855 141.271 319.957 142.592 320.16 144.014C320.414 145.436 320.744 146.756 321.15 147.975C321.557 149.143 322.039 150.133 322.598 150.945C323.207 151.707 323.893 152.088 324.654 152.088C325.467 152.088 326.152 151.707 326.711 150.945C327.32 150.184 327.803 149.219 328.158 148.051C328.514 146.883 328.768 145.613 328.92 144.242C329.072 142.82 329.148 141.5 329.148 140.281C329.148 139.164 329.047 137.945 328.844 136.625C328.641 135.254 328.336 133.984 327.93 132.816C327.574 131.648 327.092 130.684 326.482 129.922C325.924 129.16 325.264 128.779 324.502 128.779ZM358.398 114.84C358.398 117.582 358.271 120.35 358.018 123.143C357.814 125.885 357.713 128.652 357.713 131.445C357.713 135.051 357.814 138.656 358.018 142.262C358.271 145.867 358.398 149.498 358.398 153.154C358.398 154.068 358.348 155.109 358.246 156.277C358.145 157.395 357.891 158.436 357.484 159.4C357.129 160.365 356.57 161.178 355.809 161.838C355.047 162.498 354.031 162.828 352.762 162.828C351.543 162.828 350.477 162.219 349.562 161C348.699 159.832 347.963 158.334 347.354 156.506C346.795 154.627 346.312 152.545 345.906 150.26C345.551 147.975 345.271 145.766 345.068 143.633C344.916 141.449 344.789 139.469 344.688 137.691C344.637 135.863 344.611 134.518 344.611 133.654C344.611 132.689 344.637 131.293 344.688 129.465C344.789 127.637 344.967 125.656 345.221 123.523C345.475 121.391 345.805 119.232 346.211 117.049C346.668 114.814 347.252 112.809 347.963 111.031C348.674 109.203 349.512 107.73 350.477 106.613C351.492 105.445 352.686 104.861 354.057 104.861C355.174 104.861 356.012 105.242 356.57 106.004C357.18 106.715 357.611 107.604 357.865 108.67C358.119 109.686 358.271 110.777 358.322 111.945C358.373 113.062 358.398 114.027 358.398 114.84Z" fill="#36612B"/>
<rect x="2.5" y="2.5" width="502" height="435" rx="97.5" stroke="#36612B" stroke-width="5"/>
</svg>
