<svg width="504" height="440" viewBox="0 0 504 440" fill="none" xmlns="http://www.w3.org/2000/svg">
<path d="M94.9379 282C94.1219 282 93.3569 281.83 92.6429 281.49C91.9629 281.116 91.6229 280.572 91.6229 279.858V273.891H79.3829C78.7369 273.891 78.1929 273.687 77.7509 273.279C77.3089 272.837 77.0879 272.259 77.0879 271.545C77.0879 271.341 77.1219 271.12 77.1899 270.882C77.2579 270.644 77.3429 270.406 77.4449 270.168L89.5319 246.453C89.8379 245.807 90.2459 245.365 90.7559 245.127C91.2659 244.855 91.7929 244.719 92.3369 244.719C92.7449 244.719 93.2039 244.821 93.7139 245.025C94.2239 245.229 94.6659 245.535 95.0399 245.943C95.4479 246.317 95.6519 246.759 95.6519 247.269C95.6519 247.473 95.5669 247.762 95.3969 248.136L85.6049 267.72H91.6229V262.365C91.6229 261.617 91.9629 261.09 92.6429 260.784C93.3569 260.444 94.1219 260.274 94.9379 260.274C95.7539 260.274 96.5019 260.444 97.1819 260.784C97.8959 261.09 98.2529 261.617 98.2529 262.365V267.72H100.599C101.313 267.72 101.84 268.043 102.18 268.689C102.554 269.335 102.741 270.032 102.741 270.78C102.741 271.562 102.52 272.276 102.078 272.922C101.636 273.568 101.143 273.891 100.599 273.891H98.2529V279.858C98.2529 280.572 97.8959 281.116 97.1819 281.49C96.5019 281.83 95.7539 282 94.9379 282ZM107.023 282C106.445 282 105.816 281.813 105.136 281.439C104.456 281.031 104.116 280.504 104.116 279.858V274.911C104.116 273.585 104.507 272.344 105.289 271.188C106.071 269.998 107.091 268.876 108.349 267.822C109.607 266.768 110.933 265.748 112.327 264.762C113.721 263.776 115.03 262.773 116.254 261.753C117.512 260.733 118.532 259.696 119.314 258.642C120.13 257.588 120.538 256.466 120.538 255.276C120.538 254.562 120.368 253.865 120.028 253.185C119.722 252.471 119.212 251.893 118.498 251.451C117.818 250.975 116.917 250.737 115.795 250.737C114.571 250.737 113.5 251.094 112.582 251.808C111.698 252.488 111.256 253.627 111.256 255.225C111.256 255.837 110.95 256.398 110.338 256.908C109.726 257.418 108.876 257.673 107.788 257.673C106.904 257.673 106.19 257.418 105.646 256.908C105.102 256.398 104.83 255.463 104.83 254.103C104.83 252.165 105.34 250.499 106.36 249.105C107.38 247.677 108.723 246.589 110.389 245.841C112.089 245.093 113.891 244.719 115.795 244.719C117.767 244.719 119.62 245.144 121.354 245.994C123.088 246.81 124.482 247.983 125.536 249.513C126.624 251.043 127.168 252.896 127.168 255.072C127.168 256.874 126.777 258.506 125.995 259.968C125.213 261.43 124.21 262.756 122.986 263.946C121.762 265.136 120.453 266.224 119.059 267.21C117.699 268.162 116.407 269.063 115.183 269.913C113.959 270.729 112.956 271.545 112.174 272.361C111.392 273.177 111.001 274.027 111.001 274.911V276.186H125.179C125.757 276.186 126.25 276.475 126.658 277.053C127.066 277.597 127.27 278.26 127.27 279.042C127.27 279.824 127.066 280.521 126.658 281.133C126.25 281.711 125.757 282 125.179 282H107.023ZM142.768 282.306C140.524 282.306 138.501 281.932 136.699 281.184C134.897 280.402 133.469 279.161 132.415 277.461C131.361 275.727 130.834 273.432 130.834 270.576V256.449C130.834 253.593 131.361 251.315 132.415 249.615C133.469 247.881 134.897 246.64 136.699 245.892C138.501 245.11 140.524 244.719 142.768 244.719C145.012 244.719 147.035 245.11 148.837 245.892C150.673 246.64 152.118 247.881 153.172 249.615C154.226 251.315 154.753 253.593 154.753 256.449V270.576C154.753 273.432 154.226 275.727 153.172 277.461C152.118 279.161 150.673 280.402 148.837 281.184C147.035 281.932 145.012 282.306 142.768 282.306ZM142.768 276.492C144.434 276.492 145.743 276.016 146.695 275.064C147.647 274.112 148.123 272.616 148.123 270.576V256.449C148.123 254.409 147.647 252.913 146.695 251.961C145.743 251.009 144.434 250.533 142.768 250.533C141.102 250.533 139.793 251.009 138.841 251.961C137.923 252.913 137.464 254.409 137.464 256.449V270.576C137.464 272.616 137.923 274.112 138.841 275.064C139.793 276.016 141.102 276.492 142.768 276.492ZM142.768 265.935C142.054 265.935 141.476 265.714 141.034 265.272C140.626 264.796 140.422 264.218 140.422 263.538C140.422 262.824 140.626 262.263 141.034 261.855C141.476 261.413 142.054 261.192 142.768 261.192C143.516 261.192 144.094 261.413 144.502 261.855C144.944 262.263 145.165 262.824 145.165 263.538C145.165 264.218 144.944 264.796 144.502 265.272C144.094 265.714 143.516 265.935 142.768 265.935ZM161.008 287.1C160.532 287.1 160.039 286.947 159.529 286.641C159.053 286.369 158.815 285.944 158.815 285.366C158.815 285.128 158.866 284.89 158.968 284.652L160.192 281.949C159.614 281.609 159.155 281.184 158.815 280.674C158.475 280.13 158.305 279.518 158.305 278.838C158.305 277.886 158.628 277.07 159.274 276.39C159.954 275.71 160.77 275.37 161.722 275.37C162.674 275.37 163.49 275.71 164.17 276.39C164.85 277.036 165.19 277.835 165.19 278.787C165.19 278.923 165.156 279.11 165.088 279.348C165.054 279.552 164.952 279.892 164.782 280.368C164.612 280.844 164.323 281.541 163.915 282.459C163.541 283.411 163.031 284.669 162.385 286.233C162.249 286.539 162.045 286.76 161.773 286.896C161.501 287.032 161.246 287.1 161.008 287.1ZM180.719 282.306C178.475 282.306 176.452 281.932 174.65 281.184C172.848 280.402 171.42 279.161 170.366 277.461C169.312 275.727 168.785 273.432 168.785 270.576V256.449C168.785 253.593 169.312 251.315 170.366 249.615C171.42 247.881 172.848 246.64 174.65 245.892C176.452 245.11 178.475 244.719 180.719 244.719C182.963 244.719 184.986 245.11 186.788 245.892C188.624 246.64 190.069 247.881 191.123 249.615C192.177 251.315 192.704 253.593 192.704 256.449V270.576C192.704 273.432 192.177 275.727 191.123 277.461C190.069 279.161 188.624 280.402 186.788 281.184C184.986 281.932 182.963 282.306 180.719 282.306ZM180.719 276.492C182.385 276.492 183.694 276.016 184.646 275.064C185.598 274.112 186.074 272.616 186.074 270.576V256.449C186.074 254.409 185.598 252.913 184.646 251.961C183.694 251.009 182.385 250.533 180.719 250.533C179.053 250.533 177.744 251.009 176.792 251.961C175.874 252.913 175.415 254.409 175.415 256.449V270.576C175.415 272.616 175.874 274.112 176.792 275.064C177.744 276.016 179.053 276.492 180.719 276.492ZM180.719 265.935C180.005 265.935 179.427 265.714 178.985 265.272C178.577 264.796 178.373 264.218 178.373 263.538C178.373 262.824 178.577 262.263 178.985 261.855C179.427 261.413 180.005 261.192 180.719 261.192C181.467 261.192 182.045 261.413 182.453 261.855C182.895 262.263 183.116 262.824 183.116 263.538C183.116 264.218 182.895 264.796 182.453 265.272C182.045 265.714 181.467 265.935 180.719 265.935ZM209.207 282.306C206.963 282.306 204.94 281.932 203.138 281.184C201.336 280.402 199.908 279.161 198.854 277.461C197.8 275.727 197.273 273.432 197.273 270.576V256.449C197.273 253.593 197.8 251.315 198.854 249.615C199.908 247.881 201.336 246.64 203.138 245.892C204.94 245.11 206.963 244.719 209.207 244.719C211.451 244.719 213.474 245.11 215.276 245.892C217.112 246.64 218.557 247.881 219.611 249.615C220.665 251.315 221.192 253.593 221.192 256.449V270.576C221.192 273.432 220.665 275.727 219.611 277.461C218.557 279.161 217.112 280.402 215.276 281.184C213.474 281.932 211.451 282.306 209.207 282.306ZM209.207 276.492C210.873 276.492 212.182 276.016 213.134 275.064C214.086 274.112 214.562 272.616 214.562 270.576V256.449C214.562 254.409 214.086 252.913 213.134 251.961C212.182 251.009 210.873 250.533 209.207 250.533C207.541 250.533 206.232 251.009 205.28 251.961C204.362 252.913 203.903 254.409 203.903 256.449V270.576C203.903 272.616 204.362 274.112 205.28 275.064C206.232 276.016 207.541 276.492 209.207 276.492ZM209.207 265.935C208.493 265.935 207.915 265.714 207.473 265.272C207.065 264.796 206.861 264.218 206.861 263.538C206.861 262.824 207.065 262.263 207.473 261.855C207.915 261.413 208.493 261.192 209.207 261.192C209.955 261.192 210.533 261.413 210.941 261.855C211.383 262.263 211.604 262.824 211.604 263.538C211.604 264.218 211.383 264.796 210.941 265.272C210.533 265.714 209.955 265.935 209.207 265.935ZM237.695 282.306C235.451 282.306 233.428 281.932 231.626 281.184C229.824 280.402 228.396 279.161 227.342 277.461C226.288 275.727 225.761 273.432 225.761 270.576V256.449C225.761 253.593 226.288 251.315 227.342 249.615C228.396 247.881 229.824 246.64 231.626 245.892C233.428 245.11 235.451 244.719 237.695 244.719C239.939 244.719 241.962 245.11 243.764 245.892C245.6 246.64 247.045 247.881 248.099 249.615C249.153 251.315 249.68 253.593 249.68 256.449V270.576C249.68 273.432 249.153 275.727 248.099 277.461C247.045 279.161 245.6 280.402 243.764 281.184C241.962 281.932 239.939 282.306 237.695 282.306ZM237.695 276.492C239.361 276.492 240.67 276.016 241.622 275.064C242.574 274.112 243.05 272.616 243.05 270.576V256.449C243.05 254.409 242.574 252.913 241.622 251.961C240.67 251.009 239.361 250.533 237.695 250.533C236.029 250.533 234.72 251.009 233.768 251.961C232.85 252.913 232.391 254.409 232.391 256.449V270.576C232.391 272.616 232.85 274.112 233.768 275.064C234.72 276.016 236.029 276.492 237.695 276.492ZM237.695 265.935C236.981 265.935 236.403 265.714 235.961 265.272C235.553 264.796 235.349 264.218 235.349 263.538C235.349 262.824 235.553 262.263 235.961 261.855C236.403 261.413 236.981 261.192 237.695 261.192C238.443 261.192 239.021 261.413 239.429 261.855C239.871 262.263 240.092 262.824 240.092 263.538C240.092 264.218 239.871 264.796 239.429 265.272C239.021 265.714 238.443 265.935 237.695 265.935ZM255.936 287.1C255.46 287.1 254.967 286.947 254.457 286.641C253.981 286.369 253.743 285.944 253.743 285.366C253.743 285.128 253.794 284.89 253.896 284.652L255.12 281.949C254.542 281.609 254.083 281.184 253.743 280.674C253.403 280.13 253.233 279.518 253.233 278.838C253.233 277.886 253.556 277.07 254.202 276.39C254.882 275.71 255.698 275.37 256.65 275.37C257.602 275.37 258.418 275.71 259.098 276.39C259.778 277.036 260.118 277.835 260.118 278.787C260.118 278.923 260.084 279.11 260.016 279.348C259.982 279.552 259.88 279.892 259.71 280.368C259.54 280.844 259.251 281.541 258.843 282.459C258.469 283.411 257.959 284.669 257.313 286.233C257.177 286.539 256.973 286.76 256.701 286.896C256.429 287.032 256.174 287.1 255.936 287.1ZM275.646 282.306C273.402 282.306 271.379 281.932 269.577 281.184C267.775 280.402 266.347 279.161 265.293 277.461C264.239 275.727 263.712 273.432 263.712 270.576V256.449C263.712 253.593 264.239 251.315 265.293 249.615C266.347 247.881 267.775 246.64 269.577 245.892C271.379 245.11 273.402 244.719 275.646 244.719C277.89 244.719 279.913 245.11 281.715 245.892C283.551 246.64 284.996 247.881 286.05 249.615C287.104 251.315 287.631 253.593 287.631 256.449V270.576C287.631 273.432 287.104 275.727 286.05 277.461C284.996 279.161 283.551 280.402 281.715 281.184C279.913 281.932 277.89 282.306 275.646 282.306ZM275.646 276.492C277.312 276.492 278.621 276.016 279.573 275.064C280.525 274.112 281.001 272.616 281.001 270.576V256.449C281.001 254.409 280.525 252.913 279.573 251.961C278.621 251.009 277.312 250.533 275.646 250.533C273.98 250.533 272.671 251.009 271.719 251.961C270.801 252.913 270.342 254.409 270.342 256.449V270.576C270.342 272.616 270.801 274.112 271.719 275.064C272.671 276.016 273.98 276.492 275.646 276.492ZM275.646 265.935C274.932 265.935 274.354 265.714 273.912 265.272C273.504 264.796 273.3 264.218 273.3 263.538C273.3 262.824 273.504 262.263 273.912 261.855C274.354 261.413 274.932 261.192 275.646 261.192C276.394 261.192 276.972 261.413 277.38 261.855C277.822 262.263 278.043 262.824 278.043 263.538C278.043 264.218 277.822 264.796 277.38 265.272C276.972 265.714 276.394 265.935 275.646 265.935ZM304.135 282.306C301.891 282.306 299.868 281.932 298.066 281.184C296.264 280.402 294.836 279.161 293.782 277.461C292.728 275.727 292.201 273.432 292.201 270.576V256.449C292.201 253.593 292.728 251.315 293.782 249.615C294.836 247.881 296.264 246.64 298.066 245.892C299.868 245.11 301.891 244.719 304.135 244.719C306.379 244.719 308.402 245.11 310.204 245.892C312.04 246.64 313.485 247.881 314.539 249.615C315.593 251.315 316.12 253.593 316.12 256.449V270.576C316.12 273.432 315.593 275.727 314.539 277.461C313.485 279.161 312.04 280.402 310.204 281.184C308.402 281.932 306.379 282.306 304.135 282.306ZM304.135 276.492C305.801 276.492 307.11 276.016 308.062 275.064C309.014 274.112 309.49 272.616 309.49 270.576V256.449C309.49 254.409 309.014 252.913 308.062 251.961C307.11 251.009 305.801 250.533 304.135 250.533C302.469 250.533 301.16 251.009 300.208 251.961C299.29 252.913 298.831 254.409 298.831 256.449V270.576C298.831 272.616 299.29 274.112 300.208 275.064C301.16 276.016 302.469 276.492 304.135 276.492ZM304.135 265.935C303.421 265.935 302.843 265.714 302.401 265.272C301.993 264.796 301.789 264.218 301.789 263.538C301.789 262.824 301.993 262.263 302.401 261.855C302.843 261.413 303.421 261.192 304.135 261.192C304.883 261.192 305.461 261.413 305.869 261.855C306.311 262.263 306.532 262.824 306.532 263.538C306.532 264.218 306.311 264.796 305.869 265.272C305.461 265.714 304.883 265.935 304.135 265.935ZM332.623 282.306C330.379 282.306 328.356 281.932 326.554 281.184C324.752 280.402 323.324 279.161 322.27 277.461C321.216 275.727 320.689 273.432 320.689 270.576V256.449C320.689 253.593 321.216 251.315 322.27 249.615C323.324 247.881 324.752 246.64 326.554 245.892C328.356 245.11 330.379 244.719 332.623 244.719C334.867 244.719 336.89 245.11 338.692 245.892C340.528 246.64 341.973 247.881 343.027 249.615C344.081 251.315 344.608 253.593 344.608 256.449V270.576C344.608 273.432 344.081 275.727 343.027 277.461C341.973 279.161 340.528 280.402 338.692 281.184C336.89 281.932 334.867 282.306 332.623 282.306ZM332.623 276.492C334.289 276.492 335.598 276.016 336.55 275.064C337.502 274.112 337.978 272.616 337.978 270.576V256.449C337.978 254.409 337.502 252.913 336.55 251.961C335.598 251.009 334.289 250.533 332.623 250.533C330.957 250.533 329.648 251.009 328.696 251.961C327.778 252.913 327.319 254.409 327.319 256.449V270.576C327.319 272.616 327.778 274.112 328.696 275.064C329.648 276.016 330.957 276.492 332.623 276.492ZM332.623 265.935C331.909 265.935 331.331 265.714 330.889 265.272C330.481 264.796 330.277 264.218 330.277 263.538C330.277 262.824 330.481 262.263 330.889 261.855C331.331 261.413 331.909 261.192 332.623 261.192C333.371 261.192 333.949 261.413 334.357 261.855C334.799 262.263 335.02 262.824 335.02 263.538C335.02 264.218 334.799 264.796 334.357 265.272C333.949 265.714 333.371 265.935 332.623 265.935ZM350.864 287.1C350.388 287.1 349.895 286.947 349.385 286.641C348.909 286.369 348.671 285.944 348.671 285.366C348.671 285.128 348.722 284.89 348.824 284.652L350.048 281.949C349.47 281.609 349.011 281.184 348.671 280.674C348.331 280.13 348.161 279.518 348.161 278.838C348.161 277.886 348.484 277.07 349.13 276.39C349.81 275.71 350.626 275.37 351.578 275.37C352.53 275.37 353.346 275.71 354.026 276.39C354.706 277.036 355.046 277.835 355.046 278.787C355.046 278.923 355.012 279.11 354.944 279.348C354.91 279.552 354.808 279.892 354.638 280.368C354.468 280.844 354.179 281.541 353.771 282.459C353.397 283.411 352.887 284.669 352.241 286.233C352.105 286.539 351.901 286.76 351.629 286.896C351.357 287.032 351.102 287.1 350.864 287.1ZM370.574 282.306C368.33 282.306 366.307 281.932 364.505 281.184C362.703 280.402 361.275 279.161 360.221 277.461C359.167 275.727 358.64 273.432 358.64 270.576V256.449C358.64 253.593 359.167 251.315 360.221 249.615C361.275 247.881 362.703 246.64 364.505 245.892C366.307 245.11 368.33 244.719 370.574 244.719C372.818 244.719 374.841 245.11 376.643 245.892C378.479 246.64 379.924 247.881 380.978 249.615C382.032 251.315 382.559 253.593 382.559 256.449V270.576C382.559 273.432 382.032 275.727 380.978 277.461C379.924 279.161 378.479 280.402 376.643 281.184C374.841 281.932 372.818 282.306 370.574 282.306ZM370.574 276.492C372.24 276.492 373.549 276.016 374.501 275.064C375.453 274.112 375.929 272.616 375.929 270.576V256.449C375.929 254.409 375.453 252.913 374.501 251.961C373.549 251.009 372.24 250.533 370.574 250.533C368.908 250.533 367.599 251.009 366.647 251.961C365.729 252.913 365.27 254.409 365.27 256.449V270.576C365.27 272.616 365.729 274.112 366.647 275.064C367.599 276.016 368.908 276.492 370.574 276.492ZM370.574 265.935C369.86 265.935 369.282 265.714 368.84 265.272C368.432 264.796 368.228 264.218 368.228 263.538C368.228 262.824 368.432 262.263 368.84 261.855C369.282 261.413 369.86 261.192 370.574 261.192C371.322 261.192 371.9 261.413 372.308 261.855C372.75 262.263 372.971 262.824 372.971 263.538C372.971 264.218 372.75 264.796 372.308 265.272C371.9 265.714 371.322 265.935 370.574 265.935ZM399.062 282.306C396.818 282.306 394.795 281.932 392.993 281.184C391.191 280.402 389.763 279.161 388.709 277.461C387.655 275.727 387.128 273.432 387.128 270.576V256.449C387.128 253.593 387.655 251.315 388.709 249.615C389.763 247.881 391.191 246.64 392.993 245.892C394.795 245.11 396.818 244.719 399.062 244.719C401.306 244.719 403.329 245.11 405.131 245.892C406.967 246.64 408.412 247.881 409.466 249.615C410.52 251.315 411.047 253.593 411.047 256.449V270.576C411.047 273.432 410.52 275.727 409.466 277.461C408.412 279.161 406.967 280.402 405.131 281.184C403.329 281.932 401.306 282.306 399.062 282.306ZM399.062 276.492C400.728 276.492 402.037 276.016 402.989 275.064C403.941 274.112 404.417 272.616 404.417 270.576V256.449C404.417 254.409 403.941 252.913 402.989 251.961C402.037 251.009 400.728 250.533 399.062 250.533C397.396 250.533 396.087 251.009 395.135 251.961C394.217 252.913 393.758 254.409 393.758 256.449V270.576C393.758 272.616 394.217 274.112 395.135 275.064C396.087 276.016 397.396 276.492 399.062 276.492ZM399.062 265.935C398.348 265.935 397.77 265.714 397.328 265.272C396.92 264.796 396.716 264.218 396.716 263.538C396.716 262.824 396.92 262.263 397.328 261.855C397.77 261.413 398.348 261.192 399.062 261.192C399.81 261.192 400.388 261.413 400.796 261.855C401.238 262.263 401.459 262.824 401.459 263.538C401.459 264.218 401.238 264.796 400.796 265.272C400.388 265.714 399.81 265.935 399.062 265.935ZM427.551 282.306C425.307 282.306 423.284 281.932 421.482 281.184C419.68 280.402 418.252 279.161 417.198 277.461C416.144 275.727 415.617 273.432 415.617 270.576V256.449C415.617 253.593 416.144 251.315 417.198 249.615C418.252 247.881 419.68 246.64 421.482 245.892C423.284 245.11 425.307 244.719 427.551 244.719C429.795 244.719 431.818 245.11 433.62 245.892C435.456 246.64 436.901 247.881 437.955 249.615C439.009 251.315 439.536 253.593 439.536 256.449V270.576C439.536 273.432 439.009 275.727 437.955 277.461C436.901 279.161 435.456 280.402 433.62 281.184C431.818 281.932 429.795 282.306 427.551 282.306ZM427.551 276.492C429.217 276.492 430.526 276.016 431.478 275.064C432.43 274.112 432.906 272.616 432.906 270.576V256.449C432.906 254.409 432.43 252.913 431.478 251.961C430.526 251.009 429.217 250.533 427.551 250.533C425.885 250.533 424.576 251.009 423.624 251.961C422.706 252.913 422.247 254.409 422.247 256.449V270.576C422.247 272.616 422.706 274.112 423.624 275.064C424.576 276.016 425.885 276.492 427.551 276.492ZM427.551 265.935C426.837 265.935 426.259 265.714 425.817 265.272C425.409 264.796 425.205 264.218 425.205 263.538C425.205 262.824 425.409 262.263 425.817 261.855C426.259 261.413 426.837 261.192 427.551 261.192C428.299 261.192 428.877 261.413 429.285 261.855C429.727 262.263 429.948 262.824 429.948 263.538C429.948 264.218 429.727 264.796 429.285 265.272C428.877 265.714 428.299 265.935 427.551 265.935Z" fill="#36612B"/>
<path d="M101.256 108.975C101.256 110.244 100.748 111.412 99.7324 112.479C98.7676 113.494 97.5742 114.408 96.1523 115.221C94.7812 115.982 93.3594 116.617 91.8867 117.125C90.4141 117.633 89.1953 117.988 88.2305 118.191C87.8242 122.102 87.4941 126.012 87.2402 129.922C87.0371 133.781 86.9355 137.666 86.9355 141.576C86.9355 143.658 86.9863 145.715 87.0879 147.746C87.1895 149.777 87.2402 151.809 87.2402 153.84C87.2402 154.754 87.1387 155.77 86.9355 156.887C86.7832 157.953 86.4785 158.969 86.0215 159.934C85.6152 160.898 85.0312 161.711 84.2695 162.371C83.5078 163.031 82.5684 163.361 81.4512 163.361C80.1309 163.361 79.0645 162.98 78.252 162.219C77.4902 161.508 76.8809 160.619 76.4238 159.553C76.0176 158.486 75.7383 157.369 75.5859 156.201C75.4336 154.982 75.3574 153.891 75.3574 152.926C75.2559 149.879 75.1797 146.832 75.1289 143.785C75.0781 140.688 75.0527 137.59 75.0527 134.492C75.0527 131.902 75.0527 129.363 75.0527 126.875C75.1035 124.387 75.1289 121.848 75.1289 119.258C74.418 119.359 73.6816 119.436 72.9199 119.486C72.209 119.537 71.4727 119.562 70.7109 119.562C70.1016 119.562 69.2891 119.512 68.2734 119.41C67.3086 119.258 66.3691 119.029 65.4551 118.725C64.541 118.369 63.7539 117.912 63.0938 117.354C62.4336 116.744 62.1035 115.982 62.1035 115.068C62.1035 113.545 62.7129 112.225 63.9316 111.107C65.0996 109.939 66.5977 108.949 68.4258 108.137C70.3047 107.273 72.3613 106.562 74.5957 106.004C76.8809 105.395 79.1152 104.938 81.2988 104.633C83.5332 104.277 85.5645 104.023 87.3926 103.871C89.2715 103.719 90.7188 103.643 91.7344 103.643C92.6992 103.643 93.7148 103.693 94.7812 103.795C95.8984 103.846 96.9395 104.049 97.9043 104.404C98.8691 104.76 99.6562 105.293 100.266 106.004C100.926 106.715 101.256 107.705 101.256 108.975ZM110.244 163.209C107.654 163.209 105.395 162.523 103.465 161.152C101.535 159.781 99.9102 158.029 98.5898 155.896C97.2695 153.764 96.2793 151.402 95.6191 148.812C94.959 146.172 94.6289 143.582 94.6289 141.043C94.6289 138.352 94.959 135.584 95.6191 132.74C96.2793 129.846 97.2949 127.23 98.666 124.895C100.037 122.508 101.789 120.578 103.922 119.105C106.055 117.582 108.594 116.82 111.539 116.82C114.383 116.82 116.795 117.607 118.775 119.182C120.807 120.705 122.432 122.635 123.65 124.971C124.869 127.256 125.732 129.77 126.24 132.512C126.748 135.254 126.926 137.844 126.773 140.281C126.621 142.973 126.189 145.689 125.479 148.432C124.818 151.174 123.828 153.637 122.508 155.82C121.188 158.004 119.512 159.781 117.48 161.152C115.449 162.523 113.037 163.209 110.244 163.209ZM111.006 128.779C110.244 128.779 109.559 129.186 108.949 129.998C108.391 130.811 107.908 131.801 107.502 132.969C107.146 134.137 106.867 135.381 106.664 136.701C106.461 137.971 106.359 139.088 106.359 140.053C106.359 141.271 106.461 142.592 106.664 144.014C106.918 145.436 107.248 146.756 107.654 147.975C108.061 149.143 108.543 150.133 109.102 150.945C109.711 151.707 110.396 152.088 111.158 152.088C111.971 152.088 112.656 151.707 113.215 150.945C113.824 150.184 114.307 149.219 114.662 148.051C115.018 146.883 115.271 145.613 115.424 144.242C115.576 142.82 115.652 141.5 115.652 140.281C115.652 139.164 115.551 137.945 115.348 136.625C115.145 135.254 114.84 133.984 114.434 132.816C114.078 131.648 113.596 130.684 112.986 129.922C112.428 129.16 111.768 128.779 111.006 128.779ZM148.406 163.742C144.801 163.742 141.982 163.26 139.951 162.295C137.971 161.381 136.473 160.061 135.457 158.334C134.492 156.607 133.908 154.525 133.705 152.088C133.502 149.65 133.4 146.934 133.4 143.938C133.4 141.551 133.477 139.164 133.629 136.777C133.781 134.34 134.01 131.75 134.314 129.008C133.604 129.008 133.045 129.033 132.639 129.084C132.232 129.084 131.902 129.084 131.648 129.084C130.023 129.084 128.627 128.729 127.459 128.018C126.24 127.307 125.631 126.215 125.631 124.742C125.631 123.828 125.986 123.016 126.697 122.305C127.357 121.594 128.221 120.984 129.287 120.477C130.354 119.969 131.496 119.562 132.715 119.258C133.984 118.953 135.178 118.75 136.295 118.648C136.295 117.227 136.396 115.652 136.6 113.926C136.803 112.199 137.158 110.6 137.666 109.127C138.225 107.604 138.961 106.334 139.875 105.318C140.789 104.303 141.957 103.795 143.379 103.795C144.191 103.795 144.902 104.049 145.512 104.557C146.172 105.014 146.705 105.623 147.111 106.385C147.518 107.096 147.822 107.908 148.025 108.822C148.229 109.736 148.33 110.625 148.33 111.488C148.33 112.504 148.254 113.545 148.102 114.611C147.949 115.678 147.67 116.998 147.264 118.572C148.127 118.471 148.711 118.42 149.016 118.42C149.32 118.369 149.6 118.344 149.854 118.344C150.717 118.344 151.605 118.42 152.52 118.572C153.484 118.725 154.348 118.979 155.109 119.334C155.922 119.689 156.582 120.172 157.09 120.781C157.598 121.34 157.852 122.025 157.852 122.838C157.852 123.752 157.471 124.564 156.709 125.275C155.998 125.986 155.084 126.596 153.967 127.104C152.85 127.611 151.656 128.018 150.387 128.322C149.117 128.576 147.924 128.754 146.807 128.855C146.502 130.938 146.273 132.867 146.121 134.645C146.02 136.371 145.893 138.123 145.74 139.9C145.639 140.764 145.537 141.652 145.436 142.566C145.385 143.43 145.359 144.318 145.359 145.232C145.359 145.893 145.385 146.68 145.436 147.594C145.486 148.457 145.664 149.295 145.969 150.107C146.273 150.92 146.756 151.631 147.416 152.24C148.076 152.799 148.99 153.078 150.158 153.078C150.869 153.078 151.605 153.027 152.367 152.926C153.129 152.773 153.891 152.697 154.652 152.697C155.973 152.697 156.912 153.154 157.471 154.068C158.08 154.982 158.385 156.15 158.385 157.572C158.385 158.639 158.055 159.578 157.395 160.391C156.785 161.152 155.998 161.762 155.033 162.219C154.068 162.727 152.977 163.107 151.758 163.361C150.59 163.615 149.473 163.742 148.406 163.742ZM192.281 150.26C192.281 151.174 192.23 152.367 192.129 153.84C192.078 155.312 191.875 156.76 191.52 158.182C191.164 159.553 190.605 160.746 189.844 161.762C189.082 162.777 188.016 163.285 186.645 163.285C184.766 163.285 183.318 162.676 182.303 161.457C181.287 160.238 180.805 158.715 180.855 156.887C179.23 158.309 177.377 159.426 175.295 160.238C173.264 161.051 171.182 161.457 169.049 161.457C167.576 161.457 166.18 161.102 164.859 160.391C163.539 159.68 162.371 158.766 161.355 157.648C160.34 156.531 159.527 155.287 158.918 153.916C158.309 152.494 158.004 151.098 158.004 149.727C158.004 147.289 158.74 145.156 160.213 143.328C161.736 141.5 163.59 139.951 165.773 138.682C167.957 137.361 170.268 136.32 172.705 135.559C175.193 134.797 177.402 134.289 179.332 134.035C179.332 133.781 179.332 133.553 179.332 133.35C179.383 133.146 179.408 132.918 179.408 132.664C179.408 131.09 178.977 129.82 178.113 128.855C177.25 127.891 176.031 127.408 174.457 127.408C173.188 127.408 172.096 127.637 171.182 128.094C170.268 128.5 169.404 128.982 168.592 129.541C167.779 130.049 166.967 130.531 166.154 130.988C165.342 131.395 164.428 131.598 163.412 131.598C162.295 131.598 161.33 131.242 160.518 130.531C159.756 129.82 159.375 128.906 159.375 127.789C159.375 126.113 159.857 124.59 160.822 123.219C161.838 121.848 163.082 120.705 164.555 119.791C166.078 118.826 167.703 118.09 169.43 117.582C171.207 117.023 172.832 116.744 174.305 116.744C175.676 116.744 177.047 116.922 178.418 117.277C179.789 117.582 181.084 118.09 182.303 118.801C183.521 119.461 184.613 120.299 185.578 121.314C186.594 122.279 187.406 123.422 188.016 124.742C188.93 126.621 189.666 128.627 190.225 130.76C190.783 132.842 191.215 135 191.52 137.234C191.824 139.418 192.027 141.627 192.129 143.861C192.23 146.045 192.281 148.178 192.281 150.26ZM180.094 147.822L179.865 142.643C179.764 142.643 179.662 142.643 179.561 142.643C179.459 142.592 179.357 142.566 179.256 142.566C178.596 142.566 177.758 142.744 176.742 143.1C175.777 143.404 174.838 143.861 173.924 144.471C173.01 145.029 172.223 145.664 171.562 146.375C170.953 147.086 170.648 147.822 170.648 148.584C170.648 149.295 170.902 149.777 171.41 150.031C171.918 150.285 172.502 150.412 173.162 150.412C174.279 150.412 175.473 150.133 176.742 149.574C178.012 148.965 179.129 148.381 180.094 147.822ZM211.096 114.84C211.096 117.582 210.969 120.35 210.715 123.143C210.512 125.885 210.41 128.652 210.41 131.445C210.41 135.051 210.512 138.656 210.715 142.262C210.969 145.867 211.096 149.498 211.096 153.154C211.096 154.068 211.045 155.109 210.943 156.277C210.842 157.395 210.588 158.436 210.182 159.4C209.826 160.365 209.268 161.178 208.506 161.838C207.744 162.498 206.729 162.828 205.459 162.828C204.24 162.828 203.174 162.219 202.26 161C201.396 159.832 200.66 158.334 200.051 156.506C199.492 154.627 199.01 152.545 198.604 150.26C198.248 147.975 197.969 145.766 197.766 143.633C197.613 141.449 197.486 139.469 197.385 137.691C197.334 135.863 197.309 134.518 197.309 133.654C197.309 132.689 197.334 131.293 197.385 129.465C197.486 127.637 197.664 125.656 197.918 123.523C198.172 121.391 198.502 119.232 198.908 117.049C199.365 114.814 199.949 112.809 200.66 111.031C201.371 109.203 202.209 107.73 203.174 106.613C204.189 105.445 205.383 104.861 206.754 104.861C207.871 104.861 208.709 105.242 209.268 106.004C209.877 106.715 210.309 107.604 210.562 108.67C210.816 109.686 210.969 110.777 211.02 111.945C211.07 113.062 211.096 114.027 211.096 114.84ZM260.15 107.527C260.15 108.695 259.77 109.711 259.008 110.574C258.297 111.438 257.434 112.148 256.418 112.707C255.504 113.266 254.564 113.875 253.6 114.535C252.635 115.145 251.746 115.855 250.934 116.668C250.121 117.43 249.461 118.293 248.953 119.258C248.445 120.223 248.191 121.314 248.191 122.533C248.191 123.6 248.445 124.564 248.953 125.428C249.461 126.291 250.07 127.154 250.781 128.018C251.543 128.83 252.355 129.693 253.219 130.607C254.133 131.471 254.945 132.461 255.656 133.578C256.418 134.645 257.053 135.863 257.561 137.234C258.068 138.605 258.322 140.205 258.322 142.033C258.322 143.303 258.043 144.75 257.484 146.375C256.977 147.949 256.266 149.549 255.352 151.174C254.438 152.799 253.346 154.373 252.076 155.896C250.857 157.42 249.537 158.791 248.115 160.01C246.744 161.178 245.297 162.117 243.773 162.828C242.25 163.59 240.777 163.971 239.355 163.971C237.781 163.971 236.385 163.539 235.166 162.676C233.947 161.812 233.338 160.518 233.338 158.791C233.338 157.623 233.617 156.557 234.176 155.592C234.734 154.576 235.42 153.611 236.232 152.697C237.045 151.783 237.934 150.895 238.898 150.031C239.914 149.168 240.828 148.305 241.641 147.441C242.453 146.578 243.139 145.689 243.697 144.775C244.256 143.811 244.535 142.795 244.535 141.729C244.535 140.256 244.002 138.758 242.936 137.234C241.92 135.66 240.777 134.061 239.508 132.436C238.238 130.76 237.07 129.059 236.004 127.332C234.988 125.605 234.48 123.854 234.48 122.076C234.48 119.893 235.064 117.607 236.232 115.221C237.4 112.783 238.898 110.574 240.727 108.594C242.555 106.562 244.611 104.887 246.896 103.566C249.182 102.246 251.441 101.586 253.676 101.586C255.453 101.586 256.977 102.119 258.246 103.186C259.516 104.252 260.15 105.699 260.15 107.527ZM296.18 139.215C296.18 142.008 295.9 144.775 295.342 147.518C294.783 150.26 293.844 152.723 292.523 154.906C291.203 157.039 289.426 158.766 287.191 160.086C285.008 161.406 282.266 162.066 278.965 162.066C275.715 162.066 272.998 161.432 270.814 160.162C268.631 158.842 266.879 157.115 265.559 154.982C264.289 152.85 263.375 150.438 262.816 147.746C262.309 145.055 262.055 142.312 262.055 139.52C262.055 136.473 262.41 133.451 263.121 130.455C263.273 129.643 263.553 128.525 263.959 127.104C264.416 125.631 264.975 124.209 265.635 122.838C266.346 121.416 267.133 120.197 267.996 119.182C268.91 118.166 269.9 117.658 270.967 117.658C271.982 117.658 272.795 117.938 273.404 118.496C274.014 119.055 274.496 119.766 274.852 120.629C275.207 121.441 275.436 122.33 275.537 123.295C275.639 124.209 275.689 125.047 275.689 125.809C275.689 126.977 275.588 128.119 275.385 129.236C275.232 130.354 275.055 131.471 274.852 132.588C274.648 134.111 274.445 135.635 274.242 137.158C274.09 138.682 274.014 140.205 274.014 141.729C274.014 142.49 274.039 143.354 274.09 144.318C274.191 145.232 274.395 146.121 274.699 146.984C275.004 147.848 275.436 148.584 275.994 149.193C276.553 149.752 277.34 150.031 278.355 150.031C279.676 150.031 280.717 149.676 281.479 148.965C282.291 148.254 282.875 147.365 283.23 146.299C283.637 145.232 283.891 144.09 283.992 142.871C284.094 141.652 284.145 140.535 284.145 139.52C284.145 137.285 283.992 135.102 283.688 132.969C283.383 130.785 283.104 128.576 282.85 126.342C282.799 126.088 282.773 125.732 282.773 125.275C282.773 124.514 282.9 123.752 283.154 122.99C283.408 122.229 283.764 121.543 284.221 120.934C284.678 120.324 285.236 119.842 285.896 119.486C286.557 119.08 287.293 118.877 288.105 118.877C289.223 118.877 290.213 119.283 291.076 120.096C291.939 120.857 292.65 121.873 293.209 123.143C293.818 124.361 294.301 125.758 294.656 127.332C295.062 128.855 295.367 130.379 295.57 131.902C295.824 133.375 295.977 134.771 296.027 136.092C296.129 137.412 296.18 138.453 296.18 139.215ZM335.713 138.301C335.713 140.535 335.459 142.998 334.951 145.689C334.494 148.33 333.682 150.793 332.514 153.078C331.396 155.363 329.898 157.268 328.02 158.791C326.191 160.314 323.881 161.076 321.088 161.076C320.377 161.076 319.641 161.025 318.879 160.924C318.117 160.822 317.381 160.645 316.67 160.391C316.01 160.137 315.4 159.807 314.842 159.4C314.283 158.943 313.852 158.359 313.547 157.648L312.861 168.617C312.811 169.785 312.76 171.182 312.709 172.807C312.709 174.432 312.506 175.98 312.1 177.453C311.744 178.926 311.109 180.17 310.195 181.186C309.332 182.252 308.062 182.785 306.387 182.785C305.422 182.785 304.609 182.277 303.949 181.262C303.289 180.297 302.756 179.053 302.35 177.529C301.994 176.006 301.715 174.305 301.512 172.426C301.309 170.547 301.182 168.744 301.131 167.018C301.08 165.291 301.055 163.717 301.055 162.295C301.055 160.873 301.055 159.832 301.055 159.172C301.055 155.77 301.029 152.393 300.979 149.041C300.928 145.639 300.902 142.236 300.902 138.834C300.902 138.225 300.902 137.285 300.902 136.016C300.902 134.695 300.953 133.273 301.055 131.75C301.156 130.227 301.309 128.652 301.512 127.027C301.766 125.402 302.121 123.93 302.578 122.609C303.035 121.238 303.619 120.146 304.33 119.334C305.041 118.471 305.904 118.039 306.92 118.039C307.58 118.039 308.164 118.242 308.672 118.648C309.23 119.004 309.688 119.486 310.043 120.096C310.449 120.654 310.779 121.264 311.033 121.924C311.287 122.584 311.49 123.193 311.643 123.752C313.217 121.975 315.02 120.629 317.051 119.715C319.133 118.801 321.342 118.344 323.678 118.344C326.115 118.344 328.096 119.029 329.619 120.4C331.193 121.771 332.412 123.473 333.275 125.504C334.189 127.535 334.824 129.719 335.18 132.055C335.535 134.34 335.713 136.422 335.713 138.301ZM324.82 137.691C324.82 136.93 324.744 136.168 324.592 135.406C324.49 134.594 324.262 133.857 323.906 133.197C323.602 132.486 323.145 131.928 322.535 131.521C321.926 131.064 321.164 130.836 320.25 130.836C319.031 130.836 317.736 131.242 316.365 132.055C315.045 132.816 314.055 133.705 313.395 134.721C313.141 135.127 312.988 135.787 312.938 136.701C312.887 137.615 312.861 138.301 312.861 138.758C312.861 139.113 312.861 139.596 312.861 140.205C312.912 140.764 312.963 141.348 313.014 141.957C313.064 142.566 313.115 143.15 313.166 143.709C313.268 144.268 313.395 144.699 313.547 145.004C313.699 145.461 314.029 145.893 314.537 146.299C315.045 146.654 315.604 146.984 316.213 147.289C316.822 147.594 317.432 147.822 318.041 147.975C318.701 148.127 319.26 148.203 319.717 148.203C320.783 148.203 321.646 147.797 322.307 146.984C322.967 146.172 323.475 145.207 323.83 144.09C324.236 142.973 324.49 141.83 324.592 140.662C324.744 139.443 324.82 138.453 324.82 137.691ZM375.246 138.301C375.246 140.535 374.992 142.998 374.484 145.689C374.027 148.33 373.215 150.793 372.047 153.078C370.93 155.363 369.432 157.268 367.553 158.791C365.725 160.314 363.414 161.076 360.621 161.076C359.91 161.076 359.174 161.025 358.412 160.924C357.65 160.822 356.914 160.645 356.203 160.391C355.543 160.137 354.934 159.807 354.375 159.4C353.816 158.943 353.385 158.359 353.08 157.648L352.395 168.617C352.344 169.785 352.293 171.182 352.242 172.807C352.242 174.432 352.039 175.98 351.633 177.453C351.277 178.926 350.643 180.17 349.729 181.186C348.865 182.252 347.596 182.785 345.92 182.785C344.955 182.785 344.143 182.277 343.482 181.262C342.822 180.297 342.289 179.053 341.883 177.529C341.527 176.006 341.248 174.305 341.045 172.426C340.842 170.547 340.715 168.744 340.664 167.018C340.613 165.291 340.588 163.717 340.588 162.295C340.588 160.873 340.588 159.832 340.588 159.172C340.588 155.77 340.562 152.393 340.512 149.041C340.461 145.639 340.436 142.236 340.436 138.834C340.436 138.225 340.436 137.285 340.436 136.016C340.436 134.695 340.486 133.273 340.588 131.75C340.689 130.227 340.842 128.652 341.045 127.027C341.299 125.402 341.654 123.93 342.111 122.609C342.568 121.238 343.152 120.146 343.863 119.334C344.574 118.471 345.438 118.039 346.453 118.039C347.113 118.039 347.697 118.242 348.205 118.648C348.764 119.004 349.221 119.486 349.576 120.096C349.982 120.654 350.312 121.264 350.566 121.924C350.82 122.584 351.023 123.193 351.176 123.752C352.75 121.975 354.553 120.629 356.584 119.715C358.666 118.801 360.875 118.344 363.211 118.344C365.648 118.344 367.629 119.029 369.152 120.4C370.727 121.771 371.945 123.473 372.809 125.504C373.723 127.535 374.357 129.719 374.713 132.055C375.068 134.34 375.246 136.422 375.246 138.301ZM364.354 137.691C364.354 136.93 364.277 136.168 364.125 135.406C364.023 134.594 363.795 133.857 363.439 133.197C363.135 132.486 362.678 131.928 362.068 131.521C361.459 131.064 360.697 130.836 359.783 130.836C358.564 130.836 357.27 131.242 355.898 132.055C354.578 132.816 353.588 133.705 352.928 134.721C352.674 135.127 352.521 135.787 352.471 136.701C352.42 137.615 352.395 138.301 352.395 138.758C352.395 139.113 352.395 139.596 352.395 140.205C352.445 140.764 352.496 141.348 352.547 141.957C352.598 142.566 352.648 143.15 352.699 143.709C352.801 144.268 352.928 144.699 353.08 145.004C353.232 145.461 353.562 145.893 354.07 146.299C354.578 146.654 355.137 146.984 355.746 147.289C356.355 147.594 356.965 147.822 357.574 147.975C358.234 148.127 358.793 148.203 359.25 148.203C360.316 148.203 361.18 147.797 361.84 146.984C362.5 146.172 363.008 145.207 363.363 144.09C363.77 142.973 364.023 141.83 364.125 140.662C364.277 139.443 364.354 138.453 364.354 137.691ZM394.137 114.84C394.137 117.582 394.01 120.35 393.756 123.143C393.553 125.885 393.451 128.652 393.451 131.445C393.451 135.051 393.553 138.656 393.756 142.262C394.01 145.867 394.137 149.498 394.137 153.154C394.137 154.068 394.086 155.109 393.984 156.277C393.883 157.395 393.629 158.436 393.223 159.4C392.867 160.365 392.309 161.178 391.547 161.838C390.785 162.498 389.77 162.828 388.5 162.828C387.281 162.828 386.215 162.219 385.301 161C384.438 159.832 383.701 158.334 383.092 156.506C382.533 154.627 382.051 152.545 381.645 150.26C381.289 147.975 381.01 145.766 380.807 143.633C380.654 141.449 380.527 139.469 380.426 137.691C380.375 135.863 380.35 134.518 380.35 133.654C380.35 132.689 380.375 131.293 380.426 129.465C380.527 127.637 380.705 125.656 380.959 123.523C381.213 121.391 381.543 119.232 381.949 117.049C382.406 114.814 382.99 112.809 383.701 111.031C384.412 109.203 385.25 107.73 386.215 106.613C387.23 105.445 388.424 104.861 389.795 104.861C390.912 104.861 391.75 105.242 392.309 106.004C392.918 106.715 393.35 107.604 393.604 108.67C393.857 109.686 394.01 110.777 394.061 111.945C394.111 113.062 394.137 114.027 394.137 114.84ZM416.455 183.166C415.236 183.166 413.84 182.963 412.266 182.557C410.742 182.201 409.295 181.668 407.924 180.957C406.553 180.246 405.385 179.383 404.42 178.367C403.506 177.352 403.049 176.184 403.049 174.863C403.049 174.355 403.176 173.848 403.43 173.34C403.684 172.832 404.014 172.375 404.42 171.969C404.877 171.613 405.359 171.309 405.867 171.055C406.375 170.852 406.908 170.75 407.467 170.75C408.076 170.75 408.66 170.826 409.219 170.979C409.828 171.182 410.438 171.41 411.047 171.664C411.707 171.918 412.342 172.146 412.951 172.35C413.611 172.553 414.297 172.654 415.008 172.654C416.277 172.654 417.369 172.223 418.283 171.359C419.248 170.496 420.061 169.354 420.721 167.932C421.381 166.561 421.914 165.012 422.32 163.285C422.727 161.609 423.031 159.934 423.234 158.258C423.488 156.582 423.666 155.008 423.768 153.535C423.869 152.062 423.945 150.869 423.996 149.955C422.219 152.646 420.441 154.729 418.664 156.201C416.938 157.623 414.805 158.334 412.266 158.334C410.336 158.334 408.635 157.928 407.162 157.115C405.74 156.303 404.521 155.236 403.506 153.916C402.49 152.596 401.652 151.098 400.992 149.422C400.332 147.695 399.824 145.918 399.469 144.09C399.164 142.262 398.961 140.484 398.859 138.758C398.758 136.98 398.758 135.355 398.859 133.883C398.91 132.766 399.037 131.318 399.24 129.541C399.494 127.713 399.875 125.936 400.383 124.209C400.891 122.482 401.602 121.035 402.516 119.867C403.43 118.648 404.623 118.09 406.096 118.191C407.061 118.242 407.848 118.674 408.457 119.486C409.066 120.248 409.549 121.213 409.904 122.381C410.311 123.549 410.59 124.844 410.742 126.266C410.945 127.637 411.072 129.008 411.123 130.379C411.174 131.75 411.174 133.02 411.123 134.188C411.123 135.305 411.123 136.168 411.123 136.777C411.123 137.641 411.148 138.504 411.199 139.367C411.25 140.23 411.428 141.018 411.732 141.729C412.037 142.389 412.494 142.922 413.104 143.328C413.764 143.734 414.678 143.938 415.846 143.938C417.166 143.938 418.207 143.607 418.969 142.947C419.781 142.287 420.365 141.475 420.721 140.51C421.127 139.494 421.381 138.428 421.482 137.311C421.584 136.143 421.635 135.051 421.635 134.035C421.635 133.324 421.635 132.461 421.635 131.445C421.635 130.43 421.635 129.363 421.635 128.246C421.686 127.129 421.787 126.037 421.939 124.971C422.143 123.854 422.422 122.863 422.777 122C423.184 121.086 423.691 120.35 424.301 119.791C424.961 119.232 425.799 118.953 426.814 118.953C428.084 118.953 429.176 119.461 430.09 120.477C431.004 121.441 431.766 122.736 432.375 124.361C433.035 125.936 433.543 127.688 433.898 129.617C434.305 131.547 434.609 133.477 434.812 135.406C435.016 137.285 435.143 139.037 435.193 140.662C435.295 142.236 435.346 143.48 435.346 144.395C435.346 146.527 435.27 148.965 435.117 151.707C434.965 154.398 434.66 157.191 434.203 160.086C433.797 162.93 433.162 165.723 432.299 168.465C431.436 171.258 430.293 173.746 428.871 175.93C427.5 178.113 425.799 179.865 423.768 181.186C421.736 182.506 419.299 183.166 416.455 183.166Z" fill="#36612B"/>
<rect x="2.5" y="2.5" width="499" height="435" rx="97.5" stroke="#36612B" stroke-width="5"/>
</svg>
