<svg width="1920" height="180" viewBox="0 0 1920 180" fill="none" xmlns="http://www.w3.org/2000/svg">
<path d="M71 124.521C7 124.521 -17 104.273 -21 94.1488V33H1964V76.7355V143.959C1953.83 131.81 1922.6 107.512 1879 107.512C1824.5 107.512 1768 180 1718.5 180C1669 180 1619.5 94.1488 1567.5 94.1488C1515.5 94.1488 1489.5 94.1488 1383.5 134.24C1277.5 174.331 1221.14 186.57 1133 143.959C1094.34 125.271 1086.91 89.7661 1046 76.7355C980.291 55.8065 917.6 124.521 876 124.521C824 124.521 736.5 145.579 677.5 143.959C618.5 142.339 597.5 94.1488 540.5 94.1488C483.5 94.1488 496 124.521 458 124.521C420 124.521 347 94.1488 309.5 94.1488C272 94.1488 151 124.521 71 124.521Z" fill="#DA9835"/>
<path d="M71 91.5207C7 91.5207 -17 71.2727 -21 61.1488V0L975.5 21L1964 0V43.7355V110.959C1953.83 98.8099 1922.6 74.5124 1879 74.5124C1824.5 74.5124 1768 147 1718.5 147C1669 147 1619.5 61.1488 1567.5 61.1488C1515.5 61.1488 1489.5 61.1488 1383.5 101.24C1277.5 141.331 1221.14 153.57 1133 110.959C1094.34 92.2706 1086.91 56.7661 1046 43.7355C980.291 22.8065 917.6 91.5207 876 91.5207C824 91.5207 736.5 112.579 677.5 110.959C618.5 109.339 597.5 61.1488 540.5 61.1488C483.5 61.1488 496 91.5207 458 91.5207C420 91.5207 347 61.1488 309.5 61.1488C272 61.1488 151 91.5207 71 91.5207Z" fill="#AF7722"/>
</svg>
