<svg width="24" height="22" viewBox="0 0 24 22" fill="none" xmlns="http://www.w3.org/2000/svg">
<path fill-rule="evenodd" clip-rule="evenodd" d="M2.96285 0.147292C2.68013 0.0168757 2.37068 -0.0281038 2.06672 0.0170341C1.76275 0.062172 1.47538 0.195778 1.23452 0.403944C0.993656 0.612111 0.808102 0.887229 0.697172 1.20066C0.586243 1.5141 0.553993 1.85439 0.603781 2.18612L3.19853 19.4359C3.45023 21.0998 5.11599 22.054 6.50833 21.2252C7.67299 20.5318 9.40283 19.4635 10.9588 18.3488C11.7367 17.7908 14.1198 16.004 13.8269 14.7325C13.5752 13.6454 9.571 9.56024 7.28286 7.13146C6.38477 6.17725 6.79434 5.62679 7.8549 6.50451C10.4897 8.68377 14.717 11.9978 16.1151 12.9307C17.3484 13.7532 17.9914 13.8937 18.7602 13.7532C20.1628 13.4975 21.4636 13.1012 22.5253 12.6185C23.96 11.9665 23.8902 9.80475 22.5265 9.17529L2.96285 0.147292Z" fill="#FFE353"/>
</svg>
