<svg width="25" height="22" viewBox="0 0 25 22" fill="none" xmlns="http://www.w3.org/2000/svg">
<path d="M24.704 2.53285C23.7972 2.9761 22.8197 3.26738 21.8069 3.40669C22.8433 2.73548 23.6441 1.67168 24.021 0.392592C23.0435 1.02581 21.96 1.46906 20.8177 1.72234C19.8873 0.633214 18.5801 0 17.0963 0C14.3287 0 12.0676 2.43154 12.0676 5.43297C12.0676 5.86356 12.1147 6.28148 12.1971 6.67407C8.00464 6.44611 4.27142 4.28052 1.78654 1.00048C1.3508 1.79833 1.10349 2.73548 1.10349 3.72329C1.10349 5.61027 1.98674 7.28195 3.35284 8.23177C2.51669 8.23177 1.73943 7.97849 1.05638 7.59856V7.63655C1.05638 10.2707 2.79934 12.4743 5.10757 12.9682C4.36649 13.1863 3.58849 13.2166 2.83467 13.0569C3.15453 14.1365 3.78097 15.0811 4.62592 15.7581C5.47088 16.435 6.49186 16.8102 7.54535 16.8308C5.75956 18.3511 3.54597 19.1728 1.26836 19.161C0.867955 19.161 0.467547 19.1357 0.0671387 19.0851C2.30471 20.6301 4.96625 21.5293 7.81621 21.5293C17.0963 21.5293 22.1956 13.2468 22.1956 6.06618C22.1956 5.82556 22.1956 5.59761 22.1838 5.35698C23.173 4.59713 24.021 3.63464 24.704 2.53285Z" fill="#FFE353"/>
</svg>
